<?xml version="1.0" standalone="no"?> <!DOCTYPE svg PUBLIC "-//W3C//DTD SVG 1.0//EN" "http://www.w3.org/TR/2001/REC-SVG-20010904/DTD/svg10.dtd" > <svg xmlns="http://www.w3.org/2000/svg" width="100%" height="100%">
<defs >
<font horiz-adv-x="950" ><font-face
    font-family="Arial-Rounded"
    units-per-em="2048"
    panose-1="2 11 5 0 0 0 0 0 0 0"
    ascent="1583"
    descent="-477"
    alphabetic="0" />
<missing-glyph horiz-adv-x="1536" d="M256 0V1280H1280V0H256ZM1247 33V1247H289V33H1247Z" />
<glyph unicode=" " glyph-name="space" horiz-adv-x="492" />
<glyph unicode="!" glyph-name="exclam" horiz-adv-x="567" d="M213 483V1380Q213 1422 238 1446Q266 1468 299 1468Q335 1468 365 1446Q391 1426 391 1380V487Q391 393 299 387Q262 390 240 416Q213 442 213 483ZM303 -12Q258 -12 227 20Q197 51 197 92Q197 131
227 166Q260 197 303 197Q344 197 377 166Q408 133 408 92Q408 54 377 18Q346 -12 303 -12Z" />
<glyph unicode="&quot;" glyph-name="quotedbl" horiz-adv-x="643" d="M113 1384Q113 1429 137 1450Q162 1473 197 1473Q230 1473 256 1450Q281 1428 281 1384V1096Q281 1060 256 1040Q232 1019 193 1016Q113 1025 113 1096V1384ZM403 1384Q403 1428 428 1450Q454
1473 487 1473Q522 1473 547 1450Q571 1429 571 1384V1096Q571 1025 483 1016Q403 1025 403 1096V1384Z" />
<glyph unicode="#" glyph-name="numbersign" horiz-adv-x="1096" d="M315 1016L373 1397Q379 1448 397 1460Q418 1473 449 1473Q516 1473 516 1401V1376L469 1016H709L764 1401Q771 1443 788 1458Q810 1473 844 1473Q911 1473 911 1380L860 1016H987Q1028 1016
1049 995Q1071 973 1071 944Q1071 918 1049 899Q1027 881 987 881H844L801 575H928Q1008 575 1008 508Q1008 481 987 463Q968 444 932 444H780L727 68Q724 25 707 4Q689 -12 651 -12Q582 -12 575 63Q580 75 580 84L633 444H387L336 68Q330 19 313 4Q294 -12 256
-12Q190 -12 184 63Q188 77 188 88L236 444H104Q71 444 49 463Q28 481 25 508Q31 575 113 575H256L299 881H168Q132 881 111 899Q87 918 84 944Q87 974 109 995Q129 1016 164 1016H315ZM408 575H647L692 881H449L408 575Z" />
<glyph unicode="$" glyph-name="dollar" horiz-adv-x="948" d="M449 1473V1573Q449 1590 461 1599Q469 1608 487 1608Q532 1608 532 1569V1473Q708 1454 809 1376Q844 1341 844 1300Q844 1268 821 1245Q797 1224 760 1221Q734 1228 676 1260Q667 1265 651 1273T627
1285T610 1294T596 1300Q568 1314 532 1317V868Q737 802 842 705Q892 656 918 584T944 420Q936 313 881 215Q828 126 737 68Q652 12 532 -4V-109Q532 -130 520 -139Q504 -152 487 -152Q474 -152 461 -139Q449 -127 449 -109V-12Q347 -12 252 16Q158 44 100 84Q44
123 41 168Q53 252 113 252Q151 252 180 236Q324 143 449 143V713Q331 747 231 801Q147 851 102 924Q55 1001 55 1104Q58 1191 111 1274Q161 1352 252 1409Q342 1463 449 1473ZM449 899V1317Q369 1308 307 1253Q251 1199 248 1112Q248 970 449 899ZM532 680V152Q588
161 639 199Q686 233 719 295Q749 356 752 436Q752 518 707 575Q660 634 532 680Z" />
<glyph unicode="%" glyph-name="percent" horiz-adv-x="1516" d="M412 76L977 1432Q998 1489 1040 1489Q1068 1489 1092 1475Q1116 1459 1116 1432Q1116 1414 1108 1393L537 20Q523 -29 465 -29Q411 -29 395 29Q399 43 412 76ZM84 1116Q87 1216 121 1294Q153 1374
227 1425Q300 1473 399 1473Q483 1473 555 1430Q628 1385 668 1307Q709 1219 709 1116Q706 1015 666 936Q622 859 553 819Q483 780 395 780Q261 780 172 877Q84 971 84 1116ZM219 1120Q219 1056 242 1004Q263 953 305 920Q345 889 395 889Q571 901 571 1120Q571
1231 524 1296Q479 1360 399 1360Q314 1360 266 1294Q222 1231 219 1120ZM809 319Q809 416 844 498Q876 578 950 627Q1022 676 1124 676Q1209 676 1280 635Q1350 592 1391 512Q1432 425 1432 319Q1429 214 1389 139Q1348 62 1278 23Q1210 -16 1120 -16Q1029 -16
961 29Q887 72 848 150Q809 224 809 319ZM944 324Q944 231 993 162Q1041 96 1120 96Q1182 99 1221 131Q1260 165 1278 219Q1296 271 1296 332Q1296 440 1249 501T1120 563Q1035 563 991 498Q947 435 944 324Z" />
<glyph unicode="&amp;" glyph-name="ampersand" horiz-adv-x="1368" d="M553 969Q743 1066 743 1188Q743 1249 694 1288Q651 1327 575 1327Q500 1327 461 1284Q419 1242 416 1180Q420 1168 420 1153Q423 1131 438 1110Q453 1084 469 1065Q476 1057 486 1045T501
1027T520 1006Q553 973 553 969ZM872 344L500 772Q257 646 248 432Q254 353 291 289Q323 226 387 190Q450 155 532 152Q625 155 715 203Q805 253 872 344ZM399 889Q336 955 301 1008Q265 1063 252 1102Q240 1148 240 1204Q240 1290 287 1352Q331 1409 412 1442Q491
1473 575 1473Q715 1473 815 1401Q915 1332 915 1204Q912 1108 856 1022Q795 933 651 856L977 469Q1009 509 1051 575Q1070 607 1080 622T1096 647Q1143 735 1192 735Q1268 735 1268 676Q1268 625 1239 565Q1213 515 1167 459Q1132 415 1079 352L1268 125Q1292
94 1292 55Q1292 30 1270 10Q1245 -8 1212 -8Q1174 -8 1153 16L977 223Q906 138 838 92Q762 39 682 14Q603 -12 516 -12Q393 -12 293 43Q192 95 133 195Q75 292 72 416Q74 426 74 436T76 459Q78 477 78 484T80 500Q98 607 164 698Q228 787 399 889Z" />
<glyph unicode="&apos;" glyph-name="quotesingle" horiz-adv-x="381" d="M68 1155L193 1405Q222 1468 281 1468Q315 1468 342 1450Q369 1429 369 1393Q369 1366 352 1327L223 1079Q197 1017 139 1008Q62 1023 47 1096Q49 1113 68 1155Z" />
<glyph unicode="(" glyph-name="parenleft" horiz-adv-x="416" d="M256 1432Q282 1507 344 1507Q371 1507 393 1491Q412 1476 412 1444Q412 1403 383 1311Q382 1308 367 1259T348 1196Q330 1106 319 1022Q307 911 305 866Q302 795 299 676Q299 516 307 401Q313
276 338 143Q357 29 403 -96Q412 -126 412 -139Q412 -163 389 -186Q366 -205 340 -205Q291 -205 260 -135Q206 -15 178 121Q150 267 141 397Q131 550 131 692Q134 838 150 965Q166 1104 193 1214Q222 1339 256 1432Z" />
<glyph unicode=")" glyph-name="parenright" horiz-adv-x="416" d="M236 1432Q360 1120 360 625Q360 144 231 -135Q201 -205 152 -205Q121 -205 100 -184Q79 -166 76 -135Q193 208 193 676Q193 1082 84 1411Q84 1428 80 1440Q89 1507 143 1507Q208 1507 236 1432Z" />
<glyph unicode="*" glyph-name="asterisk" horiz-adv-x="797" d="M348 1188Q345 1231 324 1389Q324 1425 346 1450Q369 1473 399 1473Q430 1473 451 1454Q471 1437 471 1401Q471 1372 463 1309Q453 1231 453 1188Q483 1218 516 1245Q548 1274 584 1296Q615 1317
651 1317Q682 1317 702 1296Q721 1276 721 1243Q721 1206 680 1188L492 1108L688 1028Q725 1016 725 969Q725 940 705 920Q688 900 651 897Q616 900 584 928L453 1032Q453 987 461 930Q465 904 471 831Q471 750 395 743Q369 743 346 766Q328 784 324 823Q348 913
348 1020V1032Q330 1017 304 995T276 971Q254 950 215 924Q184 903 143 897Q121 897 98 920Q79 945 76 973Q82 1019 117 1028L307 1108Q282 1118 225 1137Q154 1158 119 1180Q81 1202 72 1243Q72 1274 93 1295T147 1317Q181 1317 213 1296Q244 1280 295 1235Q342
1191 348 1188Z" />
<glyph unicode="+" glyph-name="plus" horiz-adv-x="1229" d="M532 604V956Q532 993 557 1016Q577 1036 616 1036Q652 1036 676 1016Q700 994 700 956V604H1057Q1095 604 1116 580T1137 520Q1137 487 1114 461Q1093 436 1053 436H700V80Q700 44 676 23Q650 0 616
0Q582 0 557 22T532 84V436H172Q138 436 117 461Q95 481 92 520Q95 555 116 579T172 604H532Z" />
<glyph unicode="," glyph-name="comma" horiz-adv-x="492" d="M59 -121L193 139Q226 197 276 197Q311 197 333 176T356 117Q356 87 344 55L213 -201Q183 -260 121 -260Q88 -260 66 -238T41 -180Q44 -142 59 -121Z" />
<glyph unicode="-" glyph-name="hyphen" horiz-adv-x="721" d="M152 629H563Q604 629 627 606Q647 586 647 549Q647 516 625 494T563 471H156Q117 471 94 494Q71 514 68 545Q71 580 92 604Q113 629 152 629Z" />
<glyph unicode="." glyph-name="period" horiz-adv-x="492" d="M256 197Q297 197 330 166Q360 135 360 92Q360 53 330 18Q296 -12 256 -12Q215 -12 182 20Q152 51 152 92Q152 131 182 166Q215 197 256 197Z" />
<glyph unicode="/" glyph-name="slash" horiz-adv-x="831" d="M47 113L629 1411Q637 1440 664 1456Q688 1473 713 1473Q744 1473 768 1452Q793 1430 793 1397Q793 1377 784 1356L205 51Q180 -12 117 -12Q84 -12 63 8Q40 33 37 63Q40 75 43 88Q45 98 45 103T47 113Z" />
<glyph unicode="0" glyph-name="zero" horiz-adv-x="1096" d="M68 756Q68 909 115 1073Q159 1232 272 1350Q380 1462 553 1473Q675 1473 766 1409Q861 1342 918 1237Q976 1130 1004 1006Q1032 872 1032 752Q1032 585 997 440Q964 301 899 199Q832 93 748 43Q659
-12 553 -12Q434 -12 342 47Q293 80 256 120T188 211Q128 322 98 457Q68 598 68 756ZM260 748Q260 578 291 444Q323 311 389 225Q453 143 553 143Q646 143 710 222T807 432Q840 561 840 713Q840 911 803 1053Q765 1189 698 1253Q634 1317 545 1317Q452 1314 385
1229T291 1016Q260 886 260 748Z" />
<glyph unicode="1" glyph-name="one" horiz-adv-x="721" d="M336 1305H152Q114 1305 92 1327Q71 1348 68 1380Q71 1417 94 1438Q118 1460 156 1460H465Q499 1460 508 1448Q516 1437 516 1409V84Q516 39 489 12Q462 -12 424 -12Q389 -12 362 14Q336 39 336 84V1305Z" />
<glyph unicode="2" glyph-name="two" horiz-adv-x="1096" d="M104 1016Q107 1140 160 1241Q211 1343 317 1409Q424 1473 571 1473Q686 1468 770 1421Q859 1373 911 1286Q965 1198 965 1092Q965 942 856 797L373 156H928Q1004 156 1004 76Q1004 44 983 23Q965 0
924 0H205Q175 0 145 16Q120 33 117 63Q126 111 139 129L692 872Q768 973 768 1087Q768 1184 700 1249Q633 1313 537 1313Q463 1313 406 1274Q345 1232 311 1165Q276 1090 276 1016Q276 905 188 899Q186 901 186 901T184 903H180Q104 909 104 1016Z" />
<glyph unicode="3" glyph-name="three" horiz-adv-x="1096" d="M135 1141Q148 1240 199 1315Q249 1387 340 1432Q430 1473 541 1473Q643 1469 727 1415Q806 1365 854 1276Q897 1191 897 1092Q897 1002 854 920Q811 841 727 784Q849 748 911 651Q941 606 957 550T973
428Q973 387 965 324Q945 233 891 158Q833 81 733 35Q631 -12 492 -12Q390 -12 309 27T168 131T88 276Q87 282 87 286T84 301Q83 309 83 315T80 328Q83 365 106 395Q132 424 168 424Q232 424 256 344Q314 164 504 139Q575 142 641 176Q704 210 743 268Q781 323
784 395Q784 688 537 688Q425 688 416 760Q416 799 442 813Q478 832 541 848Q627 871 674 934Q717 994 717 1112Q714 1167 684 1219Q655 1267 612 1292T512 1317Q428 1317 369 1266Q312 1215 303 1104Q303 1066 279 1040Q255 1015 219 1012Q182 1015 158 1049Q135
1083 135 1141Z" />
<glyph unicode="4" glyph-name="four" horiz-adv-x="1096" d="M684 377H104Q22 377 16 428Q19 465 59 532L588 1389Q621 1443 651 1458Q682 1473 727 1473Q791 1473 829 1432Q864 1391 864 1327V532H956Q991 532 1013 508T1036 449Q1036 421 1014 397Q993 377
948 377H864V84Q864 39 838 14T772 -12Q738 -12 711 12T684 80V377ZM684 532V1280H680L252 532H684Z" />
<glyph unicode="5" glyph-name="five" horiz-adv-x="1096" d="M303 1380Q313 1442 322 1450Q329 1460 369 1460H885Q918 1460 940 1438Q961 1413 961 1380Q961 1350 938 1327Q916 1305 881 1305H469L408 907Q498 948 592 948Q710 948 795 885Q883 821 930 719Q975
617 975 496Q975 463 973 453Q964 337 920 244Q880 156 813 98Q755 45 668 14Q593 -12 504 -12Q417 -12 332 14Q241 39 170 92Q103 147 88 227Q88 258 106 281Q126 303 152 303Q197 303 227 268Q342 158 496 152Q615 155 696 233T780 457Q780 570 748 641Q715 715
659 748Q604 780 524 780Q487 780 463 774Q450 771 375 750Q312 728 276 725Q221 725 215 788Q219 806 219 815L303 1380Z" />
<glyph unicode="6" glyph-name="six" horiz-adv-x="1096" d="M633 1444Q665 1473 696 1473Q727 1473 750 1446Q768 1418 768 1384Q768 1351 743 1325Q721 1296 678 1264Q643 1236 621 1212Q546 1133 496 1061Q467 1021 387 885H391Q506 944 616 944Q735 944 821
872Q907 796 948 686Q991 573 991 453Q988 351 954 262Q918 176 854 115Q794 55 711 20Q632 -12 541 -12Q411 -12 313 55Q214 127 162 242Q107 361 104 508Q106 520 106 533T109 565Q111 591 111 600T113 621Q152 893 309 1100Q391 1209 469 1291T633 1444ZM293
532Q293 508 285 461Q288 324 358 242Q425 156 541 156Q668 156 733 246Q799 337 799 475Q799 510 797 520Q771 779 553 788Q447 788 377 727Q308 664 293 532Z" />
<glyph unicode="7" glyph-name="seven" horiz-adv-x="983" d="M139 1317Q56 1317 47 1393Q50 1430 72 1450Q95 1473 135 1473H881Q973 1473 973 1423Q973 1412 952 1352L387 68Q354 -12 276 -12Q250 -12 227 6Q208 25 205 59Q211 97 223 131L748 1313L752 1317H139Z" />
<glyph unicode="8" glyph-name="eight" horiz-adv-x="1096" d="M293 436Q293 370 322 301Q349 234 408 190Q464 146 545 143Q626 143 688 184Q750 230 776 295Q805 364 805 440Q805 513 776 582Q749 650 686 690Q627 731 545 731Q426 728 360 641T293 436ZM344
1104Q344 1007 397 948T553 889Q654 889 705 952Q756 1013 756 1108Q756 1165 731 1212Q705 1262 662 1288Q615 1317 555 1317Q460 1317 401 1260Q344 1206 344 1104ZM369 815Q278 864 227 948Q179 1032 176 1128Q179 1220 221 1296Q262 1375 344 1423Q425 1468
541 1473Q658 1473 748 1425Q832 1381 877 1300Q920 1219 920 1128Q920 1032 872 944Q823 857 731 811Q861 781 928 680T995 444Q995 327 944 225Q919 173 879 129T791 53Q688 -12 553 -12Q416 -12 313 53Q210 123 158 227Q103 331 100 449Q103 578 172 682Q240
782 369 815Z" />
<glyph unicode="9" glyph-name="nine" horiz-adv-x="1096" d="M465 16Q428 -8 395 -8Q366 -8 346 18Q327 45 324 72Q328 88 328 96Q335 115 399 172Q478 247 479 248Q564 343 598 397Q638 454 709 575H705Q617 525 483 516Q378 522 303 563Q236 604 188 680Q143
753 125 838Q104 920 104 1008Q107 1143 168 1249Q229 1357 334 1415Q434 1473 555 1473Q651 1473 731 1434Q812 1393 870 1323Q929 1249 956 1153Q987 1060 987 948Q987 771 918 602Q846 428 729 285Q611 135 465 16ZM809 928V987Q809 1126 741 1217Q674 1305
555 1305Q429 1305 362 1214Q297 1125 297 985Q297 950 299 940Q311 816 371 745Q429 678 545 672Q649 672 721 735Q794 799 809 928Z" />
<glyph unicode=":" glyph-name="colon" horiz-adv-x="492" d="M256 -12Q214 -12 182 18Q152 49 152 92Q152 131 182 166Q215 197 256 197Q301 197 330 166Q360 135 360 92Q360 47 330 18Q302 -12 256 -12ZM256 676Q216 676 182 707Q152 740 152 780Q152 819 182
854Q215 885 256 885Q301 885 330 854Q360 824 360 780Q360 737 330 707T256 676Z" />
<glyph unicode=";" glyph-name="semicolon" horiz-adv-x="492" d="M256 676Q216 676 182 707Q152 740 152 780Q152 819 182 854Q215 885 256 885Q301 885 330 854Q360 824 360 780Q360 737 330 707T256 676ZM55 -129L197 143Q222 197 281 197Q314 197 338 176Q360
157 360 121Q360 102 344 59L215 -201Q188 -256 125 -256Q96 -256 68 -233Q44 -213 41 -176Q44 -152 55 -129Z" />
<glyph unicode="&lt;" glyph-name="less" horiz-adv-x="1229" d="M160 608L1008 1032Q1052 1049 1071 1049Q1100 1049 1122 1030Q1141 1012 1141 981Q1141 925 1075 897L307 520L1087 131Q1137 110 1137 55Q1137 27 1118 8Q1101 -12 1067 -12Q1057 -12 1012 4L147
432Q98 461 92 512Q98 575 160 608Z" />
<glyph unicode="=" glyph-name="equal" horiz-adv-x="1229" d="M1053 647H180Q140 647 119 670Q95 696 92 727Q95 763 119 791Q140 815 180 815H1057Q1093 815 1114 791Q1133 767 1133 731Q1133 696 1112 672T1053 647ZM1053 219H180Q140 219 119 242Q95 268 92
299Q95 336 119 362Q140 387 180 387H1057Q1093 387 1114 362Q1133 340 1133 303Q1133 268 1112 244T1053 219Z" />
<glyph unicode="&gt;" glyph-name="greater" horiz-adv-x="1229" d="M1071 608Q1137 574 1137 512Q1137 466 1079 432L219 4Q177 -12 160 -12Q132 -12 115 8Q95 26 92 55Q101 116 143 131L924 520L156 897Q90 929 84 983Q84 1009 106 1028Q128 1049 160 1049Q186
1049 223 1032L1071 608Z" />
<glyph unicode="?" glyph-name="question" horiz-adv-x="907" d="M440 -12Q397 -12 365 20Q332 50 332 92Q332 133 365 166Q396 197 440 197Q480 197 514 166Q545 132 545 92Q545 50 512 20Q483 -12 440 -12ZM348 479V752Q348 794 371 815Q392 833 451 848Q468
852 482 856T508 863T528 868Q589 885 632 931T676 1067Q676 1173 610 1239T436 1305Q355 1305 293 1264Q237 1225 215 1155Q188 1068 129 1065Q83 1079 59 1100Q40 1116 37 1163Q41 1185 41 1204Q65 1313 178 1393Q293 1473 449 1473Q553 1468 643 1430Q738 1390
803 1307Q866 1227 877 1112Q877 944 786 836Q699 730 528 692V479Q528 437 502 414T436 387Q399 390 375 416Q348 439 348 479Z" />
<glyph unicode="@" glyph-name="at" horiz-adv-x="1640" d="M1067 987L1096 1071Q1107 1109 1120 1122Q1138 1133 1163 1133Q1193 1133 1217 1120Q1239 1107 1239 1079Q1239 1073 1237 1067V1053L1092 555Q1091 550 1090 547T1087 537Q1087 526 1085 520T1083
504Q1082 500 1081 496T1079 487Q1079 434 1141 428Q1204 442 1257 485Q1310 526 1343 584Q1376 640 1392 709T1409 844Q1409 915 1389 980T1331 1102Q1255 1213 1120 1274Q989 1335 823 1335Q661 1329 528 1255Q460 1218 406 1165T309 1040Q268 969 248 888T227
717Q227 543 317 406Q360 341 419 288T547 199Q689 128 831 125Q955 125 1034 145Q1125 171 1169 199Q1223 231 1300 293Q1368 348 1409 348Q1430 348 1444 334Q1460 318 1460 299Q1460 271 1427 227Q1399 194 1307 131Q1219 75 1096 31Q971 -12 827 -12Q631 -9
457 90Q368 139 299 205T180 352Q79 519 76 717Q76 944 188 1115T475 1378Q652 1469 827 1473Q930 1473 1021 1454T1192 1399Q1271 1364 1336 1314T1452 1196T1530 1057T1565 903Q1567 893 1567 860Q1567 760 1530 655Q1491 551 1423 471Q1355 388 1262 342Q1168
292 1061 289Q925 298 915 408H907Q813 295 664 289Q575 295 508 338Q440 385 403 457Q368 525 365 616Q375 758 430 870Q490 993 590 1065Q690 1141 827 1141Q991 1141 1067 987ZM563 752Q554 714 545 633Q551 478 713 444Q797 452 860 512Q924 570 958 662Q991
747 991 836Q991 978 868 987Q738 987 666 918Q591 846 563 752Z" />
<glyph unicode="A" glyph-name="A" horiz-adv-x="1251" d="M344 471H911L629 1264H625L344 471ZM289 315L193 51Q174 -12 100 -12Q64 -12 43 6Q19 27 16 59Q19 73 23 86Q24 93 29 109L500 1368Q519 1423 551 1448Q586 1477 625 1477Q667 1477 700 1450Q731 1426
752 1372L1229 109Q1237 78 1237 55Q1237 20 1214 2T1153 -16Q1124 -16 1098 0Q1070 18 1061 51L965 315H289Z" />
<glyph unicode="B" glyph-name="B" horiz-adv-x="1100" d="M121 1364Q121 1411 146 1435T213 1460H541Q646 1460 735 1413Q821 1367 872 1288Q925 1208 928 1116Q928 1047 907 987Q889 923 844 870Q794 816 725 793V788Q848 765 922 698Q989 637 1016 559Q1040
486 1040 420Q1040 312 985 217Q930 119 827 61Q721 0 580 0H219Q121 0 121 96V1364ZM299 1305V844H508Q586 844 639 877Q693 911 720 962T748 1075Q748 1170 690 1237Q631 1305 528 1305H299ZM299 696V156H541Q647 156 717 193Q790 227 823 289Q857 347 860 424Q860
498 827 557Q796 618 725 659Q658 696 559 696H299Z" />
<glyph unicode="C" glyph-name="C" horiz-adv-x="1217" d="M1112 1317Q1137 1284 1137 1247Q1137 1219 1114 1196Q1093 1175 1061 1171Q1023 1182 1016 1188Q996 1203 973 1220T936 1247Q896 1278 844 1296Q796 1314 721 1317Q562 1317 459 1229Q353 1138 307
1008Q259 880 256 743Q256 618 295 487Q335 351 430 250Q528 149 692 143Q794 143 870 172Q948 203 1036 256Q1066 272 1096 272Q1128 272 1147 250Q1163 228 1163 193Q1163 145 1137 125Q1055 51 938 20Q822 -12 705 -12Q534 -9 414 56T213 233Q133 346 100 467Q63
596 63 709Q63 854 104 999Q143 1133 227 1243Q307 1349 430 1411Q551 1468 709 1473Q773 1473 860 1456Q925 1441 1004 1403Q1073 1368 1112 1317Z" />
<glyph unicode="D" glyph-name="D" horiz-adv-x="1292" d="M307 1305V156H588Q648 156 725 178Q804 205 870 266Q944 332 989 449Q1036 569 1036 748Q1036 882 1004 981Q970 1085 907 1157Q844 1230 758 1266Q668 1305 563 1305H307ZM129 1364Q129 1460 223 1460H592Q788
1460 934 1364Q1076 1267 1153 1100Q1229 935 1229 735Q1226 522 1155 354Q1086 189 942 94Q805 0 608 0H223Q173 0 152 29Q129 57 129 80V1364Z" />
<glyph unicode="E" glyph-name="E" horiz-adv-x="907" d="M121 1360Q121 1404 143 1434Q165 1460 197 1460H748Q780 1460 803 1436Q823 1412 823 1376Q823 1340 803 1317Q781 1292 743 1292H299V811H705Q743 811 764 786Q784 766 784 727Q784 693 762 668Q741
643 700 643H299V168H748Q785 168 803 143Q823 120 823 80Q823 48 801 23Q778 0 735 0H209Q151 0 137 33Q121 68 121 96V1360Z" />
<glyph unicode="F" glyph-name="F" horiz-adv-x="831" d="M121 1360Q121 1404 143 1434Q165 1460 197 1460H748Q777 1460 797 1436Q815 1408 815 1372Q815 1335 795 1315Q772 1292 731 1292H299V811H688Q726 811 748 786Q768 763 768 725Q768 691 748 668Q726
643 692 643H299V84Q299 39 272 12Q245 -12 209 -12Q176 -12 147 12Q121 37 121 80V1360Z" />
<glyph unicode="G" glyph-name="G" horiz-adv-x="1368" d="M1208 1292Q1229 1272 1229 1233Q1229 1199 1204 1178T1141 1153Q1101 1156 1071 1180Q996 1238 913 1280Q838 1317 721 1317Q598 1317 506 1264T362 1124Q306 1035 283 938Q259 846 256 743Q256 615
295 485Q336 349 430 252Q528 154 692 143Q810 143 915 193Q1016 243 1081 348Q1145 449 1145 604V668H885Q810 668 801 748Q810 836 877 836H1204Q1323 836 1323 700V668Q1323 520 1282 371Q1242 221 1104 104Q965 -12 705 -12Q535 -12 412 57Q290 124 213 236Q138
340 100 469Q68 593 63 709Q63 856 104 1001Q144 1139 227 1243Q308 1348 430 1408T709 1473Q866 1473 1004 1423Q1135 1379 1208 1292Z" />
<glyph unicode="H" glyph-name="H" horiz-adv-x="1368" d="M121 1368Q121 1417 147 1444Q174 1473 209 1473Q245 1473 272 1446T299 1368V809H1067V1368Q1067 1422 1094 1448Q1123 1477 1155 1477Q1190 1477 1221 1448Q1247 1422 1247 1368V88Q1247 39 1221 14T1155
-12Q1120 -12 1094 14Q1067 41 1067 88V651H299V88Q299 38 272 14Q246 -12 209 -12Q172 -12 147 14Q121 41 121 88V1368Z" />
<glyph unicode="I" glyph-name="I" horiz-adv-x="416" d="M121 1376Q121 1473 213 1473Q249 1473 274 1448Q299 1427 299 1376V88Q299 31 272 10T213 -12Q121 -12 121 84V1376Z" />
<glyph unicode="J" glyph-name="J" horiz-adv-x="721" d="M461 1380Q461 1425 487 1448Q514 1473 549 1473Q586 1473 614 1448Q641 1425 641 1380V381Q641 304 625 219Q605 135 532 66Q465 -3 311 -12Q237 -12 164 8Q88 30 35 68Q-16 103 -16 147Q-16 223 55 223Q83
223 104 215Q112 210 132 197T160 178Q184 163 217 154Q253 143 303 143Q367 143 416 190Q461 236 461 344V1380Z" />
<glyph unicode="K" glyph-name="K" horiz-adv-x="1141" d="M121 1376Q121 1422 147 1448Q174 1473 209 1473Q244 1473 272 1448Q299 1425 299 1380V844L944 1436Q989 1473 1024 1473Q1057 1473 1079 1448Q1100 1428 1100 1389Q1100 1342 1065 1313L465 772L1128
131Q1159 110 1159 59Q1159 27 1135 6Q1108 -16 1071 -16Q1023 -16 981 29L299 696V80Q299 36 272 12T209 -12Q176 -12 147 12Q121 37 121 80V1376Z" />
<glyph unicode="L" glyph-name="L" horiz-adv-x="756" d="M121 1376Q121 1425 147 1448Q174 1473 213 1473Q299 1473 299 1368V168H668Q710 168 741 147T772 88Q772 33 743 16Q714 0 696 0H205Q172 0 147 25Q121 45 121 109V1376Z" />
<glyph unicode="M" glyph-name="M" horiz-adv-x="1708" d="M272 1348Q283 1412 319 1444Q359 1477 408 1477Q457 1477 492 1450Q527 1427 541 1376L852 307H856L1167 1384Q1181 1429 1217 1452Q1251 1477 1296 1477Q1347 1477 1389 1446Q1427 1412 1436 1356L1649
104Q1649 43 1622 14Q1598 -16 1561 -16Q1525 -16 1501 3T1468 63L1300 1243L944 55Q926 -16 856 -16Q825 -16 799 4Q774 23 764 55L412 1243L240 55Q234 14 205 -8Q177 -33 139 -33Q107 -33 84 -6Q58 24 55 72Q59 92 59 113L272 1348Z" />
<glyph unicode="N" glyph-name="N" horiz-adv-x="1364" d="M121 1380Q121 1427 141 1450Q163 1477 197 1477Q258 1477 299 1415L1065 315H1067V1376Q1067 1422 1094 1448Q1122 1473 1155 1473Q1191 1473 1221 1448Q1247 1422 1247 1376V76Q1247 35 1225 8Q1203
-16 1167 -16Q1112 -16 1067 41L303 1141L299 1145V76Q299 31 272 10T209 -12Q173 -12 147 12Q121 34 121 80V1380Z" />
<glyph unicode="O" glyph-name="O" horiz-adv-x="1401" d="M63 727Q63 925 139 1096Q216 1266 362 1370Q509 1473 705 1473Q852 1473 975 1413Q1090 1357 1174 1251Q1255 1150 1298 1014Q1340 884 1343 727Q1343 524 1268 358Q1232 276 1175 207T1044 88Q903 -12
705 -12Q524 -12 379 80Q229 176 147 342Q63 515 63 727ZM256 731Q256 597 297 463Q338 330 438 236Q537 143 705 143Q793 143 879 180Q958 217 1020 291Q1084 368 1116 475Q1150 584 1153 731Q1153 871 1118 987Q1087 1092 1024 1171Q963 1243 881 1280T705 1317Q580
1317 477 1249Q373 1179 315 1049Q256 916 256 731Z" />
<glyph unicode="P" glyph-name="P" horiz-adv-x="1065" d="M121 1364Q121 1415 149 1437T209 1460H571Q668 1460 752 1430Q838 1400 901 1343Q965 1286 1006 1200Q1041 1117 1044 1004Q1044 914 1010 827Q975 743 915 680Q853 615 770 582Q689 545 596 545H299V76Q299
33 272 12Q245 -12 209 -12Q176 -12 147 12Q121 37 121 80V1364ZM299 1305V700H555Q693 700 778 788Q864 874 864 1008Q864 1149 778 1225Q692 1305 563 1305H299Z" />
<glyph unicode="Q" glyph-name="Q" horiz-adv-x="1401" d="M63 727Q63 925 139 1096Q216 1266 362 1370Q509 1473 705 1473Q852 1473 975 1413Q1090 1357 1174 1251Q1255 1150 1298 1014Q1340 884 1343 727Q1343 605 1309 481Q1275 363 1217 268L1384 100Q1401
78 1401 43Q1401 17 1378 -4Q1357 -25 1321 -25Q1291 -25 1260 0L1112 143Q944 -12 705 -12Q524 -12 379 80Q229 176 147 342Q63 515 63 727ZM256 731Q256 597 297 463Q338 330 438 236Q537 143 705 143Q879 143 995 260L864 387Q843 408 831 453Q831 478 854 506Q876
528 907 528Q945 528 977 504L1083 395Q1153 551 1153 731Q1153 871 1118 987Q1087 1092 1024 1171Q963 1243 881 1280T705 1317Q580 1317 477 1249Q373 1179 315 1049Q256 916 256 731Z" />
<glyph unicode="R" glyph-name="R" horiz-adv-x="1065" d="M299 1305V784H553Q654 784 713 819Q768 852 791 911Q812 967 815 1049Q815 1126 778 1184Q746 1241 682 1274Q615 1305 545 1305H299ZM121 1364Q121 1415 149 1437T209 1460H559Q661 1460 762 1411Q867
1363 930 1264Q995 1164 995 1024Q986 915 952 846Q920 774 856 729Q801 685 713 666Q631 647 520 647L987 135Q1024 102 1024 55Q1024 29 999 10Q975 -8 940 -8Q887 -8 856 29L299 641V76Q299 31 272 10T209 -12Q173 -12 147 12Q121 34 121 80V1364Z" />
<glyph unicode="S" glyph-name="S" horiz-adv-x="948" d="M784 1397Q844 1355 844 1300Q844 1269 819 1247Q799 1224 760 1221Q728 1228 659 1260Q599 1289 561 1303Q530 1317 479 1317Q381 1317 319 1260T244 1104Q250 977 416 907Q448 893 535 864Q595 843 682
809Q747 781 801 743Q852 707 889 651Q944 557 944 444Q944 329 889 225Q829 116 721 53Q606 -12 453 -12Q339 -12 238 18Q139 46 84 88Q44 115 41 168Q41 203 63 231Q85 256 121 256Q137 256 172 240Q241 193 317 168T475 143Q544 143 612 184Q673 224 711 289Q748
355 748 428Q748 503 705 557Q660 611 598 643Q541 673 430 711Q379 727 303 756Q221 796 172 834Q121 872 88 936Q58 997 55 1087Q55 1198 119 1286Q187 1381 283 1423Q385 1473 492 1473Q672 1473 784 1397Z" />
<glyph unicode="T" glyph-name="T" horiz-adv-x="872" d="M365 1292H84Q46 1292 25 1317Q3 1340 0 1376Q3 1412 27 1436Q48 1460 88 1460H819Q862 1460 885 1436Q907 1409 907 1376Q907 1340 887 1317Q865 1292 827 1292H545V80Q545 36 518 12T453 -12Q420 -12
391 12Q365 37 365 80V1292Z" />
<glyph unicode="U" glyph-name="U" horiz-adv-x="1364" d="M121 1380Q121 1425 147 1448Q174 1473 209 1473Q244 1473 272 1448Q299 1425 299 1380V504Q299 387 350 307Q403 227 492 184Q585 143 696 143Q812 146 895 193Q980 238 1026 319Q1071 397 1071 504V1380Q1071
1424 1096 1448Q1121 1473 1155 1473Q1191 1473 1221 1448Q1247 1425 1247 1380V563Q1247 386 1186 258Q1127 127 1001 57Q879 -12 692 -12Q549 -12 440 28T260 145Q188 225 156 326Q121 431 121 559V1380Z" />
<glyph unicode="V" glyph-name="V" horiz-adv-x="1141" d="M16 1335Q12 1345 0 1401Q0 1441 23 1466Q46 1493 80 1493Q115 1493 141 1468Q169 1444 184 1401L567 293H571L956 1405Q982 1477 1053 1477Q1087 1477 1110 1454T1133 1389Q1133 1374 1124 1339L672
76Q648 20 631 6Q612 -12 571 -12Q532 -12 510 4Q485 26 471 68L16 1335Z" />
<glyph unicode="W" glyph-name="W" horiz-adv-x="1671" d="M1436 109Q1427 49 1386 14Q1346 -20 1296 -20Q1250 -20 1217 4Q1180 32 1167 76L856 1149H852L541 72Q527 27 492 4Q455 -20 408 -20Q358 -20 319 12Q283 41 272 100L59 1352Q59 1411 84 1444Q107 1473
143 1473Q178 1473 207 1452Q234 1431 240 1393L408 213L764 1401Q782 1473 848 1473Q882 1473 909 1452Q934 1436 944 1401L1296 213L1468 1401Q1476 1442 1501 1464Q1529 1489 1565 1489Q1601 1489 1624 1462Q1649 1434 1649 1380V1343L1436 109Z" />
<glyph unicode="X" glyph-name="X" horiz-adv-x="1217" d="M504 784L121 1323Q91 1376 88 1401Q88 1431 112 1452T168 1473Q230 1473 260 1423L608 915L956 1423Q988 1473 1044 1473Q1075 1473 1097 1452T1120 1397Q1120 1361 1096 1323L713 784L1176 131Q1200
98 1200 59Q1200 31 1176 8Q1152 -12 1116 -12Q1069 -12 1036 33L608 641L180 33Q154 -12 96 -12Q68 -12 43 10Q19 36 16 63Q21 90 41 125L504 784Z" />
<glyph unicode="Y" glyph-name="Y" horiz-adv-x="987" d="M424 688L25 1335Q3 1374 0 1401Q0 1431 24 1452T80 1473Q136 1473 168 1423L512 864L856 1419Q888 1473 940 1473Q973 1473 996 1452T1020 1397Q1020 1369 1004 1339L604 688V84Q604 39 575 10Q549 -16
512 -16Q479 -16 451 12Q424 39 424 84V688Z" />
<glyph unicode="Z" glyph-name="Z" horiz-adv-x="1141" d="M831 1305H168Q127 1305 106 1325Q83 1348 80 1380Q89 1460 172 1460H973Q1065 1460 1065 1389Q1065 1351 1032 1305L268 156H1008Q1051 156 1071 135Q1092 114 1092 80Q1092 47 1067 25Q1046 0 1004
0H147Q52 0 43 80Q46 115 72 156L831 1305Z" />
<glyph unicode="[" glyph-name="bracketleft" horiz-adv-x="457" d="M156 1372Q156 1422 182 1448Q212 1473 252 1473H391Q426 1473 451 1450Q471 1427 471 1393Q471 1365 449 1341T395 1317H324V-12H391Q427 -12 449 -37Q471 -59 471 -92Q471 -123 449 -145T385
-168H252Q210 -168 182 -143Q156 -117 156 -72V1372Z" />
<glyph unicode="\" glyph-name="backslash" horiz-adv-x="831" d="M55 1335Q43 1372 37 1401Q37 1434 59 1455T113 1477Q178 1477 201 1423L784 113Q797 83 797 51Q797 23 774 0Q754 -20 721 -20Q657 -20 637 37L55 1335Z" />
<glyph unicode="]" glyph-name="bracketright" horiz-adv-x="457" d="M336 -68Q336 -117 311 -143Q285 -168 244 -168H100Q64 -168 43 -145Q20 -119 20 -88Q20 -61 43 -35Q64 -12 96 -12H168V1317H100Q64 1317 43 1341Q19 1367 16 1397Q26 1473 109 1473H240Q283
1473 311 1448Q336 1424 336 1376V-68Z" />
<glyph unicode="^" glyph-name="asciicircum" horiz-adv-x="1229" d="M129 709L520 1409Q561 1477 612 1477Q672 1477 713 1405L1104 709Q1116 684 1116 659Q1116 636 1094 612Q1071 591 1040 588Q987 597 961 651L616 1292L260 641Q237 597 184 588Q156 588 135
608Q116 628 113 659Q125 699 129 709Z" />
<glyph unicode="_" glyph-name="underscore" horiz-adv-x="1024" d="M0 -256Q-32 -256 -47 -238T-63 -197Q-63 -177 -48 -165T-4 -152H1024Q1057 -152 1071 -166Q1087 -182 1087 -205Q1087 -224 1071 -242Q1057 -256 1024 -256H0Z" />
<glyph unicode="`" glyph-name="grave" horiz-adv-x="416" d="M465 1688Q409 1708 399 1763Q399 1794 426 1823Q453 1847 487 1847Q508 1847 520 1843L793 1729Q860 1707 860 1649Q860 1621 838 1597Q813 1576 772 1573Q767 1576 750 1579Q740 1581 735 1581T725
1583L465 1688Z" />
<glyph unicode="a" glyph-name="a" horiz-adv-x="1141" d="M252 545Q252 437 285 348Q318 257 383 201Q447 143 541 143Q705 143 776 260Q848 383 848 545Q848 668 811 760Q773 854 707 899Q640 948 553 948H549Q403 942 330 831Q255 719 252 545ZM852 956V1016Q852
1055 877 1079Q901 1104 936 1104Q971 1104 995 1079Q1020 1055 1020 1012V80Q1020 35 995 10Q973 -12 936 -12Q902 -12 877 10T852 72V152H848Q734 -9 563 -12Q426 -12 313 55Q198 127 135 250T72 541Q72 729 141 852Q210 978 322 1042Q429 1104 541 1104Q637
1104 709 1069Q778 1037 848 956H852Z" />
<glyph unicode="b" glyph-name="b" horiz-adv-x="1141" d="M889 549Q886 667 854 750Q820 837 756 889Q691 942 600 948Q511 948 440 901Q366 852 328 766Q288 679 285 553Q287 551 287 551T289 549V545Q292 437 322 352Q352 261 422 203Q494 143 604 143Q699
146 764 205Q832 267 858 354Q889 443 889 549ZM307 956H311Q425 1104 604 1104Q742 1104 846 1028Q951 954 1010 823Q1067 697 1067 541Q1067 422 1032 319Q999 220 936 143Q873 69 782 29Q692 -12 584 -12Q385 -6 311 135H307V76Q307 34 281 12Q253 -12 215 -12Q180
-12 156 12Q129 36 129 80V1489Q129 1534 154 1559Q181 1583 215 1583Q252 1583 281 1559Q307 1537 307 1493V956Z" />
<glyph unicode="c" glyph-name="c" horiz-adv-x="907" d="M848 1004Q856 981 856 965Q856 937 834 913Q812 892 776 889Q772 891 767 892T747 899T715 909Q674 924 631 936Q600 944 563 944Q464 944 397 889Q325 832 293 745Q255 655 252 559Q252 410 315 287Q335
247 367 215T439 166T532 143Q551 143 563 139Q596 143 612 147Q636 151 653 158Q661 161 671 165T696 174Q713 182 735 193Q763 205 780 205Q809 205 829 184Q848 164 848 129Q848 50 756 18Q660 -12 563 -12Q418 -12 303 59Q192 129 133 254Q75 373 72 520Q72
632 100 739Q129 842 186 924Q244 1003 338 1053Q433 1101 555 1104Q667 1104 745 1073Q825 1046 848 1004Z" />
<glyph unicode="d" glyph-name="d" horiz-adv-x="1141" d="M252 549Q252 383 324 266Q394 149 537 143Q647 143 719 203Q789 261 819 352Q849 437 852 545Q852 666 813 756Q775 849 707 897Q641 948 553 948Q450 948 385 889Q317 830 287 737Q255 656 252 549ZM831
956V1493Q831 1536 858 1559Q886 1583 920 1583Q958 1583 985 1559Q1012 1538 1012 1489V80Q1012 36 985 12T920 -12Q887 -12 858 12Q831 37 831 76V135H827Q800 77 733 33Q666 -9 555 -12Q409 -12 303 57Q192 128 133 254Q75 379 72 541Q72 659 104 758Q138 860
199 940Q258 1013 346 1061Q428 1104 532 1104Q718 1104 827 956H831Z" />
<glyph unicode="e" glyph-name="e" horiz-adv-x="1065" d="M51 555Q57 696 115 821Q174 948 281 1024Q388 1101 532 1104Q676 1104 782 1028Q893 951 952 825Q1012 696 1012 563Q1012 475 911 475H231Q234 364 279 293Q320 218 397 180Q473 143 563 143Q725 143
856 256Q900 289 924 289Q956 289 971 266Q987 244 987 213Q987 177 961 147Q907 87 791 35Q679 -12 553 -12Q417 -12 322 39Q221 89 164 170Q103 256 76 350Q50 437 47 545Q51 553 51 553V555ZM231 612H831Q828 763 752 854Q672 945 541 948Q403 948 322 860Q238
772 231 612Z" />
<glyph unicode="f" glyph-name="f" horiz-adv-x="492" d="M176 936H100Q12 936 12 1020Q18 1092 104 1092H176V1352Q176 1454 244 1516Q313 1574 412 1583Q571 1583 571 1499Q571 1472 549 1450Q521 1427 479 1427H424Q356 1427 356 1348V1092H471Q553 1092 559
1020Q559 936 471 936H356V80Q356 37 330 12Q302 -12 264 -12Q230 -12 203 12T176 80V936Z" />
<glyph unicode="g" glyph-name="g" horiz-adv-x="1141" d="M252 545Q255 424 287 342Q322 249 385 199Q450 146 541 143Q680 143 766 247T852 532Q852 641 819 731Q785 829 715 887Q645 948 537 948Q441 945 377 887T283 737Q252 650 252 545ZM831 143H827Q785
68 713 31Q637 -12 537 -12Q399 -9 295 66Q190 138 131 270Q72 400 72 553Q75 713 133 838T303 1034Q410 1104 555 1104Q656 1102 724 1064T827 952H831V1012Q831 1053 858 1077Q883 1100 920 1100Q960 1100 985 1077Q1012 1054 1012 1008V76Q1012 -73 954 -190Q900
-307 788 -375Q684 -441 528 -444Q352 -444 188 -348Q106 -296 100 -236Q113 -172 172 -160Q233 -169 293 -209Q339 -242 406 -266Q472 -289 537 -289Q686 -289 760 -172Q834 -57 834 102Q834 113 831 123V143Z" />
<glyph unicode="h" glyph-name="h" horiz-adv-x="1096" d="M121 1489Q121 1534 146 1558T209 1583Q248 1583 272 1559Q299 1538 299 1489V965L303 961Q352 1025 428 1065Q502 1104 596 1104Q701 1104 793 1049Q883 995 932 901Q983 812 983 700V80Q983 36 956
12T893 -12Q860 -12 831 12Q805 37 805 80V676Q805 791 737 868Q673 945 555 948Q487 948 428 918Q371 887 334 827Q299 765 299 680V80Q299 36 272 12T209 -12Q176 -12 147 12Q121 37 121 80V1489Z" />
<glyph unicode="i" glyph-name="i" horiz-adv-x="416" d="M121 1012Q121 1056 147 1079Q172 1104 209 1104Q248 1104 272 1079Q299 1053 299 1008V80Q299 36 272 12T209 -12Q176 -12 147 12Q121 37 121 80V1012ZM209 1231Q166 1231 135 1262Q106 1291 106 1333Q106
1375 135 1405Q168 1436 209 1436Q251 1436 281 1407Q309 1378 309 1333Q309 1288 281 1260T209 1231Z" />
<glyph unicode="j" glyph-name="j" horiz-adv-x="416" d="M121 1008Q121 1053 146 1078T209 1104Q246 1104 272 1079Q299 1056 299 1012V-348Q299 -393 272 -420Q245 -444 209 -444Q174 -444 147 -418Q121 -393 121 -348V1008ZM209 1247Q166 1247 129 1282Q96
1315 96 1360Q96 1405 129 1438Q166 1473 209 1473Q252 1473 287 1440Q319 1407 319 1360Q319 1313 287 1280T209 1247Z" />
<glyph unicode="k" glyph-name="k" horiz-adv-x="907" d="M121 1493Q121 1536 147 1556Q173 1579 209 1579Q246 1579 274 1556Q299 1535 299 1489V717L721 1071Q755 1100 793 1100Q827 1100 847 1077T868 1016Q868 980 836 952L416 621L897 147Q932 114 932 59Q932
29 911 8Q891 -12 856 -12Q809 -12 764 33L299 516V80Q299 36 272 12T209 -12Q176 -12 147 12Q121 37 121 80V1493Z" />
<glyph unicode="l" glyph-name="l" horiz-adv-x="416" d="M121 1485Q121 1531 147 1554Q172 1579 209 1579Q244 1579 271 1556T299 1489V84Q299 39 272 12Q245 -12 209 -12Q174 -12 147 14Q121 39 121 84V1485Z" />
<glyph unicode="m" glyph-name="m" horiz-adv-x="1704" d="M121 1016Q121 1054 147 1077Q176 1100 213 1100Q253 1100 274 1077Q299 1053 299 1008V973H303Q404 1104 584 1104Q768 1098 877 920Q952 1023 1034 1063Q1119 1104 1221 1104Q1319 1101 1407 1055Q1490
1005 1542 918Q1591 829 1591 709V76Q1591 34 1565 12Q1537 -12 1499 -12Q1465 -12 1438 12T1411 76V696Q1411 776 1380 834Q1353 891 1300 919T1184 948Q1083 948 1012 889Q944 827 944 696V76Q944 36 918 14Q888 -8 852 -8Q819 -8 791 14Q764 35 764 76V688Q764
819 698 885Q632 948 532 948Q466 945 416 922Q361 895 332 844Q299 794 299 709V76Q299 33 272 12Q245 -12 209 -12Q176 -12 147 12Q121 37 121 76V1016Z" />
<glyph unicode="n" glyph-name="n" horiz-adv-x="1096" d="M121 1008Q121 1053 146 1078T209 1104Q248 1104 272 1079Q299 1053 299 1008V965L303 961Q352 1027 434 1067Q509 1104 600 1104Q705 1104 788 1059Q877 1013 930 918Q983 821 983 688V80Q983 38 956
14Q931 -8 893 -8Q857 -8 831 16Q805 38 805 80V684Q805 806 731 874Q657 944 553 944Q486 944 428 913Q370 886 336 823Q299 765 299 680V80Q299 33 274 8Q250 -16 213 -16Q176 -16 150 10Q121 39 121 80V1008Z" />
<glyph unicode="o" glyph-name="o" horiz-adv-x="1096" d="M252 545Q252 391 324 268Q394 143 549 143Q649 143 717 199Q782 248 817 342Q849 426 852 545Q852 654 817 748Q783 839 717 893Q650 948 553 948Q457 948 389 897Q320 843 287 752Q252 658 252 545ZM72
545Q72 708 133 831Q195 962 305 1032Q418 1104 553 1104Q701 1101 807 1026Q916 949 975 821Q1032 698 1032 545Q1032 389 975 266Q918 140 807 63Q701 -12 553 -12Q405 -12 299 63Q186 142 129 268Q72 391 72 545Z" />
<glyph unicode="p" glyph-name="p" horiz-adv-x="1141" d="M889 545Q889 649 858 739Q828 829 764 887T604 948Q491 948 422 891T322 741Q292 657 289 549Q289 362 371 254Q454 142 584 139Q596 143 600 143Q689 149 756 203Q819 254 854 344Q886 426 889 545ZM307
135V-348Q307 -401 283 -428Q256 -457 219 -457Q184 -457 156 -426Q129 -400 129 -352V1008Q129 1053 154 1079Q180 1104 215 1104Q253 1104 281 1079Q307 1056 307 1012V956H311Q384 1101 584 1104Q695 1104 780 1065Q868 1026 934 950Q1000 875 1032 776Q1067
674 1067 553Q1067 392 1010 266Q951 136 846 63Q740 -12 604 -12Q422 -12 311 135H307Z" />
<glyph unicode="q" glyph-name="q" horiz-adv-x="1141" d="M252 545Q252 429 285 344Q318 256 383 203Q450 149 541 143Q624 143 698 190Q769 237 809 326Q848 411 848 537Q848 641 815 731Q786 823 713 887Q643 948 532 948Q441 945 377 887T283 739T252 545ZM831
135H823Q778 65 702 27Q628 -12 532 -12Q394 -12 293 63Q237 102 198 150T127 268Q68 401 68 553Q71 713 133 840Q195 963 302 1033T553 1104Q663 1101 731 1059Q802 1010 827 956H831V1012Q831 1052 858 1079Q886 1104 920 1104Q959 1104 985 1079Q1012 1053 1012
1008V-352Q1012 -399 983 -428T915 -457Q882 -457 856 -428Q831 -400 831 -348V135Z" />
<glyph unicode="r" glyph-name="r" horiz-adv-x="643" d="M121 1008Q121 1052 147 1075Q172 1100 209 1100Q246 1100 272 1075Q299 1052 299 1008V915H303Q343 987 408 1044Q471 1101 545 1104Q588 1104 616 1077Q647 1050 647 1012Q647 965 616 944Q584 924 522
907Q473 895 444 881Q373 841 336 773T299 608V80Q299 37 274 12Q250 -12 213 -12Q176 -12 147 12Q121 39 121 84V1008Z" />
<glyph unicode="s" glyph-name="s" horiz-adv-x="907" d="M96 109Q56 136 47 197Q47 229 70 254Q92 276 125 276Q153 276 178 262Q196 252 242 219Q264 204 297 184Q363 149 449 143Q535 143 604 180Q672 215 672 293Q672 366 588 416Q541 445 430 489Q328 531
254 565Q186 603 145 655Q96 715 96 801Q96 879 141 950Q189 1020 266 1059Q357 1101 453 1104Q557 1104 647 1071Q737 1040 784 995Q827 953 827 911Q827 880 805 858Q781 836 748 831Q700 846 647 879Q596 909 549 932Q522 945 471 948Q372 948 326 909Q275 869
272 811Q283 760 319 725Q365 686 410 668Q458 646 530 621Q600 596 629 584Q750 534 803 469T856 307Q853 218 809 152Q764 82 674 35Q589 -9 453 -12Q238 -12 96 109Z" />
<glyph unicode="t" glyph-name="t" horiz-adv-x="492" d="M176 936H96Q57 936 35 958Q11 982 8 1012Q17 1092 96 1092H176V1335Q176 1375 201 1397Q229 1419 264 1419Q300 1419 330 1397Q356 1375 356 1331V1092H436Q473 1092 498 1069Q520 1047 520 1012Q520
979 500 958Q476 936 444 936H356V76Q356 35 328 12T260 -12Q225 -12 201 12Q176 34 176 80V936Z" />
<glyph unicode="u" glyph-name="u" horiz-adv-x="1096" d="M121 1012Q121 1056 147 1079Q172 1104 209 1104Q246 1104 272 1079Q299 1056 299 1012V416Q299 289 362 217Q424 143 549 143Q805 143 805 416V1012Q805 1056 831 1079Q856 1104 893 1104Q930 1104 956
1079Q983 1056 983 1012V412Q983 294 938 203Q890 104 795 47Q695 -12 545 -12Q401 -12 307 45Q212 104 166 199Q121 293 121 412V1012Z" />
<glyph unicode="v" glyph-name="v" horiz-adv-x="872" d="M20 969Q16 979 4 1032Q4 1071 28 1095T88 1120Q161 1120 184 1044L436 276L692 1044Q711 1108 776 1108Q809 1108 838 1085Q864 1065 864 1024Q864 1008 856 981L532 63Q517 24 496 6T436 -12Q371 -12
344 59L20 969Z" />
<glyph unicode="w" glyph-name="w" horiz-adv-x="1516" d="M8 981Q8 981 4 1001T0 1020Q0 1057 27 1077Q52 1100 88 1100Q166 1100 184 1036L424 268L428 264L668 1028Q680 1068 705 1090Q733 1112 760 1112Q828 1112 852 1028L1096 268H1100L1335 1024Q1358 1104
1432 1104Q1466 1104 1491 1081Q1516 1056 1516 1016Q1516 1000 1507 973L1200 76Q1168 -12 1100 -12Q1062 -12 1038 10Q1013 33 995 88L764 815H760L532 104Q511 33 487 12Q460 -12 420 -12Q382 -12 358 10Q333 37 311 96L8 981Z" />
<glyph unicode="x" glyph-name="x" horiz-adv-x="948" d="M373 575L84 952Q60 980 51 1028Q51 1060 74 1081Q99 1104 131 1104Q179 1104 209 1065L475 709L739 1061Q767 1104 815 1104Q849 1104 870 1081Q893 1056 893 1020Q893 987 868 956L580 575L907 147Q944
103 944 47Q944 18 922 -4Q900 -25 868 -25Q816 -25 772 37L475 449L176 33Q144 -12 88 -12Q58 -12 35 8Q11 32 8 68Q14 108 43 152L373 575Z" />
<glyph unicode="y" glyph-name="y" horiz-adv-x="872" d="M369 41L43 973Q42 979 41 984T38 1001T33 1020Q33 1058 57 1079Q78 1100 117 1100Q146 1100 174 1083Q199 1067 209 1036L457 289H461L709 1040Q727 1104 793 1104Q827 1104 852 1081Q877 1059 877 1016Q877
1000 868 973L395 -373Q386 -409 358 -430Q328 -453 297 -453Q271 -453 248 -430Q226 -410 223 -369Q228 -343 236 -311L369 41Z" />
<glyph unicode="z" glyph-name="z" horiz-adv-x="907" d="M143 1092H760Q844 1092 844 1028Q844 998 809 936L281 156H784Q824 156 850 133Q872 111 872 76Q872 44 848 23Q822 0 784 0H129Q89 0 61 10Q36 18 33 51Q42 106 80 160L600 936H139Q104 936 82 958Q58
984 55 1012Q64 1092 143 1092Z" />
<glyph unicode="{" glyph-name="braceleft" horiz-adv-x="528" d="M135 655V647Q324 635 324 369V68Q324 -19 377 -37Q395 -44 436 -47Q481 -50 502 -61Q524 -72 524 -109Q524 -137 502 -154Q478 -168 444 -168H356Q265 -168 211 -110T156 41V356Q156 462 131
514Q110 560 43 580Q-33 601 -33 651Q-33 707 43 725Q88 734 113 762Q138 787 147 831Q156 871 156 948V1264Q156 1357 211 1415Q263 1473 356 1473H444Q473 1473 502 1456Q524 1440 524 1409Q524 1371 502 1362Q473 1350 436 1348Q389 1345 377 1339Q324 1321
324 1237V936Q324 804 278 734T135 655Z" />
<glyph unicode="|" glyph-name="bar" horiz-adv-x="457" d="M143 1503Q143 1538 168 1561Q192 1579 227 1579Q311 1579 311 1499V68Q311 31 287 8Q263 -12 227 -12Q193 -12 168 10Q143 33 143 72V1503Z" />
<glyph unicode="}" glyph-name="braceright" horiz-adv-x="528" d="M356 647V655Q256 665 211 743Q168 823 168 936V1237Q168 1322 117 1339Q103 1347 55 1350Q17 1353 -10 1364Q-33 1373 -33 1411Q-33 1441 -8 1456Q23 1473 47 1473H139Q226 1473 283 1413Q336
1352 336 1264L340 948Q340 840 362 788Q386 740 449 725Q524 704 524 647Q524 598 449 580Q385 564 362 514Q340 465 340 356L336 41Q336 -48 283 -109Q226 -168 139 -168H47Q12 -168 -10 -154Q-33 -137 -33 -109Q-33 -72 -10 -61Q9 -50 55 -47Q97 -44 117 -37Q168
-20 168 68V369Q168 482 211 561Q255 641 356 647Z" />
<glyph unicode="~" glyph-name="asciitilde" horiz-adv-x="1229" d="M131 432Q131 492 170 543Q212 597 272 631Q336 664 395 664Q508 664 641 596Q765 528 827 528Q851 528 877 545Q889 553 924 596Q957 636 973 647Q997 664 1028 664Q1055 664 1079 647Q1100
633 1100 608Q1100 550 1061 496Q1019 439 958 406T831 373Q717 373 592 440Q572 451 544 464T499 485T471 498Q440 512 403 512Q377 512 356 496Q339 481 309 444Q282 408 260 389Q238 373 205 373Q174 373 152 389Q131 406 131 432Z" />
<glyph unicode="" glyph-name="Zcaron" horiz-adv-x="1141" d="M831 1305H168Q127 1305 106 1325Q83 1348 80 1380Q89 1460 172 1460H973Q1065 1460 1065 1389Q1065 1351 1032 1305L268 156H1008Q1051 156 1071 135Q1092 114 1092 80Q1092 47 1067 25Q1046 0
1004 0H147Q52 0 43 80Q46 115 72 156L831 1305ZM578 1571L809 1681Q836 1696 842 1706Q852 1721 852 1749Q852 1775 838 1792Q819 1810 788 1810Q764 1807 745 1800L571 1729L399 1796Q394 1798 348 1806Q320 1806 305 1788Q291 1771 291 1743Q291 1688 334 1673L578
1571Z" />
<glyph unicode="&#x80;" glyph-name="ogonek" horiz-adv-x="0" />
</font>
</defs>
</svg>
