<?xml version="1.0" standalone="no"?> <!DOCTYPE svg PUBLIC "-//W3C//DTD SVG 1.0//EN" "http://www.w3.org/TR/2001/REC-SVG-20010904/DTD/svg10.dtd" > <svg xmlns="http://www.w3.org/2000/svg" width="100%" height="100%">
<defs >
<font horiz-adv-x="864" ><font-face
    font-family="Freeform"
    units-per-em="2048"
    panose-1="2 2 5 0 0 0 0 0 0 0"
    ascent="1481"
    descent="-487"
    alphabetic="0" />
<missing-glyph horiz-adv-x="1536" d="M256 0V1280H1280V0H256ZM1247 33V1247H289V33H1247Z" />
<glyph unicode=" " glyph-name="space" horiz-adv-x="516" />
<glyph unicode="!" glyph-name="exclam" horiz-adv-x="645" d="M61 -25Q26 -25 2 -1T-23 63Q-23 130 19 185T113 240Q148 240 171 214T195 145Q195 106 176 66T126 1T61 -25ZM193 539Q193 634 229 734T348 1006Q412 1139 437 1205T463 1360V1407Q463 1450 485
1450Q498 1450 518 1431T560 1378T597 1306T612 1233Q612 1180 590 1123T535 1011T446 876T340 715Q293 642 279 588T258 484T236 434Q218 434 206 462T193 539Z" />
<glyph unicode="&quot;" glyph-name="quotedbl" horiz-adv-x="686" d="M195 860H160L90 1319Q86 1347 86 1360Q86 1408 110 1435T176 1462Q219 1462 242 1435T266 1356Q266 1331 264 1319L195 860ZM526 860H492L422 1319Q420 1333 420 1356Q420 1406 443 1434T508
1462Q550 1462 574 1435T598 1360Q598 1333 596 1319L526 860Z" />
<glyph unicode="#" glyph-name="numbersign" horiz-adv-x="1575" d="M760 1458H915L754 1004H1030L1192 1458H1348L1186 1004H1487L1438 864H1137L1040 588H1360L1311 449H991L829 -4H674L836 449H557L395 -4H242L401 449H88L139 588H451L549 864H213L264 1004H598L760
1458ZM702 864L604 588H887L983 864H702Z" />
<glyph unicode="$" glyph-name="dollar" horiz-adv-x="1034" d="M807 360Q807 262 753 178T605 43T397 -8Q338 -8 338 23Q338 37 349 42T391 50T440 55Q533 70 591 140T649 309Q649 360 633 406T589 498T532 580T426 713Q349 807 307 865T238 990T211 1133Q211
1219 250 1286T363 1392T537 1430Q606 1430 606 1401Q606 1386 594 1381T548 1370T494 1358Q433 1339 400 1292T367 1178Q367 1117 396 1055T465 941T606 764Q710 642 758 556T807 360ZM584 926Q539 964 539 989Q539 995 551 1028L725 1491Q745 1542 778 1542Q805
1542 805 1522Q805 1512 797 1491L584 926ZM922 1118Q898 1118 893 1136T888 1193T881 1251T841 1298T807 1341Q807 1360 849 1376T930 1393Q954 1393 983 1372T1034 1322T1057 1282Q1057 1254 1034 1215T978 1147T922 1118ZM451 569L176 -174Q155 -229 137 -229Q125
-229 115 -218T104 -188Q104 -171 117 -139L401 625Q435 594 451 569ZM72 25Q19 25 -59 77T-137 188Q-137 219 -114 266T-60 348T-12 383Q29 383 29 334Q29 323 29 313T27 289Q27 215 42 165T77 80T98 45Q98 25 72 25Z" />
<glyph unicode="%" glyph-name="percent" horiz-adv-x="1972" d="M672 1450Q749 1450 803 1385T858 1214Q858 1150 838 1074T776 918T680 772Q512 565 352 565Q283 565 227 605T139 717T106 881Q106 956 131 1034T202 1182T317 1311Q360 1346 398 1369T466 1403T508
1415Q528 1415 528 1395Q528 1383 491 1352T422 1284Q348 1199 304 1084T260 852Q260 743 284 690T367 637Q469 637 569 815Q637 932 671 1040T705 1225Q705 1282 693 1315T670 1358T639 1387T618 1415Q618 1450 672 1450ZM1473 1380L502 27Q478 -6 461 -17T408
-29Q367 -29 367 -2Q367 8 389 41L1360 1393Q1388 1430 1402 1440T1452 1450Q1495 1450 1495 1421Q1495 1413 1473 1380ZM1604 856Q1651 856 1695 827T1764 744T1790 621Q1790 522 1744 403T1612 178Q1530 76 1446 25T1284 -27Q1180 -27 1110 60T1040 287Q1040
365 1064 442T1135 589T1249 717Q1292 752 1330 775T1398 809T1440 821Q1460 821 1460 801Q1460 789 1423 758T1354 690Q1280 605 1237 490T1194 258Q1194 146 1218 96T1298 45Q1402 45 1501 221Q1568 338 1602 447T1636 633Q1636 689 1624 722T1592 774T1561 802T1550
821Q1550 856 1604 856Z" />
<glyph unicode="&amp;" glyph-name="ampersand" horiz-adv-x="1575" d="M528 -23Q400 -23 295 35T131 194T72 420Q72 640 250 809Q310 866 340 866Q367 866 367 848Q367 834 345 805T288 724T231 615T209 485Q209 388 255 312T382 194T567 152Q719 152 863 245T1108
508Q1147 572 1187 663T1238 773T1270 793Q1283 793 1291 783T1300 752Q1300 732 1280 670T1216 521T1104 340Q974 160 827 69T528 -23ZM-2 119Q27 100 27 70Q27 36 -7 5T-80 -27Q-108 -27 -130 -7T-152 41Q-152 89 -80 163T25 238Q35 238 44 226T53 195Q53 180
43 169T-2 119ZM727 893Q727 852 712 820T671 759T598 690T506 612Q459 573 401 518T328 450T299 436Q290 436 282 443T274 461Q274 477 290 495T362 568T467 680Q582 813 582 889Q582 926 567 945T531 979T510 1004Q510 1018 526 1028T569 1038Q636 1038 681 997T727
893ZM928 500Q899 481 879 481Q843 481 819 523T795 629Q795 689 826 749T916 857T1061 942Q1102 959 1210 991T1383 1053T1507 1139Q1571 1200 1593 1261T1620 1413Q1623 1475 1647 1475Q1683 1475 1683 1405Q1683 1255 1605 1146T1368 961Q1327 942 1199 887T1025
793T979 694Q979 664 989 647T1015 613T1032 588Q1032 567 999 547L928 500Z" />
<glyph unicode="&apos;" glyph-name="quotesingle" horiz-adv-x="352" d="M195 860H160L90 1319Q86 1347 86 1356Q86 1407 109 1434T176 1462Q218 1462 242 1435T266 1360Q266 1347 262 1319L195 860Z" />
<glyph unicode="(" glyph-name="parenleft" horiz-adv-x="758" d="M315 -291L258 -360Q225 -400 215 -410T193 -420Q170 -420 138 -350T84 -161T61 94Q61 277 111 460T263 823T516 1169Q618 1281 700 1353T843 1464T922 1503Q930 1503 936 1496T942 1481Q942 1463
862 1398T711 1260Q595 1139 503 1004T349 727T254 443T221 164Q221 -114 315 -291Z" />
<glyph unicode=")" glyph-name="parenright" horiz-adv-x="758" d="M346 1374L403 1444Q430 1476 443 1489T471 1503Q489 1503 511 1463T554 1355T587 1193T600 989Q600 806 550 623T398 262T145 -86Q59 -182 -32 -263T-184 -382T-260 -420Q-266 -420 -273 -412T-281
-397Q-281 -385 -268 -372T-211 -322T-133 -258T-49 -178Q69 -55 160 79T312 353T407 637T440 918Q440 1194 346 1374Z" />
<glyph unicode="*" glyph-name="asterisk" horiz-adv-x="815" d="M467 1200L311 1292Q305 1335 305 1376Q305 1411 313 1411Q361 1411 422 1386L475 1206L467 1200ZM520 1212L522 1393Q598 1452 621 1452Q634 1452 655 1343L528 1208L520 1212ZM573 1171L731 1260Q831
1216 831 1202Q831 1181 756 1120L573 1163V1171ZM561 1110L717 1018Q723 975 723 922Q723 903 715 903Q678 903 608 930L555 1106L561 1110ZM494 1090L489 911Q412 852 397 852Q378 852 358 961L485 1094L494 1090ZM444 1133L291 1047Q253 1058 222 1076T190 1102Q190
1108 211 1132T266 1184L444 1143V1133Z" />
<glyph unicode="+" glyph-name="plus" horiz-adv-x="1706" d="M782 1221H924V680H1452V541H924V0H782V541H254V680H782V1221Z" />
<glyph unicode="," glyph-name="comma" horiz-adv-x="516" d="M10 170L90 217Q118 231 127 231Q153 231 181 212T227 160T244 88Q244 -40 72 -135Q10 -169 -46 -187T-119 -205Q-147 -205 -147 -182Q-147 -165 -116 -152T-47 -121Q21 -83 52 -48T84 31Q84 65 66
76T8 98T-31 127Q-31 146 10 170Z" />
<glyph unicode="-" glyph-name="hyphen" horiz-adv-x="721" d="M168 430Q105 430 51 422T0 414Q-14 414 -14 434Q-14 449 1 475T47 530Q68 549 88 554T152 559H172Q204 559 266 557T358 555Q428 555 489 564T545 573Q567 573 567 555Q567 533 546 502T483 448T383
426Q379 426 308 428T168 430Z" />
<glyph unicode="." glyph-name="period" horiz-adv-x="516" d="M86 -25Q51 -25 28 0T4 63Q4 129 44 184T137 240Q172 240 195 214T219 145Q219 85 178 30T86 -25Z" />
<glyph unicode="/" glyph-name="slash" horiz-adv-x="569" d="M25 -190H-92L475 1450H592L25 -190Z" />
<glyph unicode="0" glyph-name="zero" horiz-adv-x="1034" d="M678 1413Q678 1450 745 1450Q810 1450 864 1411T950 1293T983 1108Q983 996 952 868T858 602T702 332Q581 156 460 64T238 -29Q163 -29 104 18T10 156T-25 365Q-25 510 21 663T154 960T362 1223Q437
1295 491 1333T567 1372Q594 1372 594 1350Q594 1342 583 1329T542 1287T485 1226T418 1139Q339 1028 279 882T188 586T156 299Q156 169 180 107T262 45Q302 45 356 84T471 202T592 395Q657 520 704 658T775 918T799 1126Q799 1266 750 1331Q739 1346 709 1370T678
1413Z" />
<glyph unicode="1" glyph-name="one" horiz-adv-x="1034" d="M780 1421Q805 1384 805 1333V1323Q395 320 395 205Q395 169 428 145T508 99T555 70Q555 40 545 18T522 -4Q509 -4 465 5T376 21T262 27Q172 27 81 14T-4 0Q-39 0 -39 68Q-39 89 -22 98T39 119T106
138T156 166Q187 188 227 273T310 471T472 927T608 1313Q548 1309 528 1309Q389 1309 389 1329Q389 1365 401 1391T432 1417Q438 1417 483 1412T561 1407Q651 1407 780 1421Z" />
<glyph unicode="2" glyph-name="two" horiz-adv-x="1034" d="M-154 0Q-154 27 -122 90T-23 236T135 399Q197 454 341 575T565 777T688 935T731 1096Q731 1191 669 1255T514 1319Q389 1319 279 1210Q254 1185 242 1173T216 1152T188 1143Q166 1143 166 1163Q166
1202 268 1298Q425 1446 600 1446Q698 1446 771 1406T884 1293T924 1126Q924 1011 861 899T672 686Q601 629 543 587T395 483T233 368T125 283Q41 207 11 162T-62 43T-125 -31Q-134 -31 -144 -21T-154 0ZM575 -8Q552 -8 480 0T358 8Q299 8 207 -2T84 -12Q25 -12
25 18Q25 42 47 48T180 71T379 115Q438 133 492 160T602 223T685 274T735 289Q763 289 778 272T793 223Q793 176 763 121T682 29T575 -8Z" />
<glyph unicode="3" glyph-name="three" horiz-adv-x="1034" d="M539 829H559Q679 829 745 766T811 592Q811 481 744 373T551 178T255 41T-115 -10Q-166 -10 -188 -3T-211 25Q-211 43 -192 47T-106 56T0 66Q145 89 261 138T459 255T582 401T625 563Q625 620 606
659T548 720T457 741Q403 741 358 726T266 688T205 666Q193 666 182 687T170 721Q170 734 183 741T249 767T340 803Q525 886 621 985T717 1188Q717 1233 695 1270T634 1329T547 1350Q504 1350 468 1337T397 1302T339 1265T303 1249Q279 1249 279 1272Q279 1291
307 1318T387 1377T503 1428T637 1448Q761 1448 833 1386T905 1219Q905 1112 816 1021T539 829Z" />
<glyph unicode="4" glyph-name="four" horiz-adv-x="1034" d="M903 1159L678 541H854Q928 541 928 489Q928 451 906 441T838 430H629L578 281Q551 206 551 168Q551 139 559 120T583 77T598 43Q598 30 569 12T498 -20T414 -33Q376 -33 354 -14T332 35Q332 74 373
186L463 430H14Q-46 430 -70 437T-94 471Q-94 488 -84 506T-49 553T-4 606L477 1174Q509 1212 528 1228T569 1245Q598 1245 598 1212Q598 1203 592 1191T573 1164T541 1126L39 541H506L696 1044Q741 1157 741 1196Q741 1226 733 1246T711 1285T698 1315Q698 1334
766 1393T877 1452Q946 1452 946 1341Q946 1274 903 1159Z" />
<glyph unicode="5" glyph-name="five" horiz-adv-x="1034" d="M303 901Q428 956 535 956Q609 956 666 935T767 872T833 775T856 649Q856 566 823 482T726 319T568 174T358 61Q257 21 136 -3T-74 -27Q-127 -27 -127 4Q-127 30 -107 35T0 52T176 88Q297 122 388
177T543 306T637 460T668 625Q668 731 613 789T457 848Q396 848 355 834T252 793T168 766Q137 766 137 803Q137 830 168 891L399 1350Q481 1394 592 1407Q677 1343 760 1343Q823 1343 874 1371T952 1448Q954 1449 958 1449T973 1450Q988 1450 1014 1438Q991 1393
953 1352T864 1279T757 1230T645 1212Q586 1212 473 1241L303 901Z" />
<glyph unicode="6" glyph-name="six" horiz-adv-x="1034" d="M6 391Q6 528 56 661T202 919T445 1158T778 1364Q865 1407 930 1427T1030 1448Q1071 1448 1071 1421Q1071 1407 1055 1397T988 1366T883 1320T772 1257Q589 1141 457 989T256 672T188 352Q188 255 209
189T267 89T356 55Q415 55 480 108T602 268Q678 411 678 563Q678 642 654 694T578 772Q561 781 542 788T513 802T504 823Q504 842 531 856T610 870Q681 870 738 835T829 735T862 584Q862 489 813 380T668 166Q580 69 489 18T322 -33Q239 -33 166 21T49 172T6 391Z"
/>
<glyph unicode="7" glyph-name="seven" horiz-adv-x="1034" d="M500 481Q406 355 406 311Q406 291 422 250T438 186Q438 156 395 104T295 11T197 -31Q172 -31 155 -4T137 66Q137 124 169 198T253 350T412 567L983 1300Q923 1278 858 1265T746 1246T626 1235T518
1223Q440 1210 400 1189T295 1124T203 1081Q180 1081 166 1095T152 1130Q152 1173 173 1220T229 1311T305 1381T383 1407Q417 1407 490 1386T618 1352T745 1339Q817 1339 872 1353T984 1387T1061 1407Q1084 1407 1100 1391T1116 1354Q1116 1328 1105 1309T1071
1262L500 481Z" />
<glyph unicode="8" glyph-name="eight" horiz-adv-x="1034" d="M672 1380Q612 1380 564 1351T487 1269T459 1149Q459 1102 477 1050T530 932T602 801Q667 684 695 627T744 508T764 387Q764 274 709 179T555 28T340 -29Q187 -29 89 64T-10 303Q-10 415 40 508T190
680Q235 717 276 736T342 756Q350 756 355 749T360 733Q360 725 356 718T337 696T303 659Q166 498 166 305Q166 223 192 163T265 71T371 39Q434 39 488 76T575 177T608 319Q608 363 595 413T562 506T510 608T444 727Q421 770 393 822T345 921T315 1007T305 1092Q305
1194 357 1275T503 1402T715 1448Q853 1448 932 1381T1012 1200Q1012 1063 868 944Q804 890 746 861T668 831Q647 831 647 850Q647 859 653 868T683 897T715 926Q842 1039 842 1200Q842 1284 797 1332T672 1380Z" />
<glyph unicode="9" glyph-name="nine" horiz-adv-x="1034" d="M612 1448Q687 1448 748 1419T854 1334T923 1202T948 1034Q948 865 863 683T619 342T250 80Q161 37 69 8T-94 -35T-193 -49Q-242 -49 -242 -20Q-242 -2 -222 6T-140 28T-23 58T104 109Q199 154 276
209T425 339T555 496Q772 795 772 1114Q772 1246 729 1314T606 1382Q503 1382 414 1253Q347 1159 313 1054T279 846Q279 745 305 676T366 557T401 500Q401 487 393 479T371 471Q338 471 262 541Q98 690 98 893Q98 1003 149 1112T297 1309Q451 1448 612 1448Z" />
<glyph unicode=":" glyph-name="colon" horiz-adv-x="569" d="M57 -25Q22 -25 -2 -1T-27 63Q-27 130 15 185T109 240Q145 240 167 214T190 145Q190 85 149 30T57 -25ZM291 684Q254 684 232 708T209 772Q209 815 228 856T278 922T344 948Q379 948 402 921T426 854Q426
792 384 738T291 684Z" />
<glyph unicode=";" glyph-name="semicolon" horiz-adv-x="569" d="M-25 170L55 217Q85 231 94 231Q122 231 148 212T192 159T209 88Q209 -41 37 -135Q-28 -170 -81 -187T-152 -205Q-180 -205 -180 -182Q-180 -171 -172 -165T-143 -149T-80 -121Q49 -51 49 31Q49
65 29 77T-28 100T-66 127Q-66 146 -25 170ZM311 684Q275 684 251 709T227 772Q227 815 245 855T296 922T362 948Q398 948 421 922T444 854Q444 794 403 739T311 684Z" />
<glyph unicode="&lt;" glyph-name="less" horiz-adv-x="1706" d="M1442 1159V1006L473 610L1442 217V63L264 547V676L1442 1159Z" />
<glyph unicode="=" glyph-name="equal" horiz-adv-x="1706" d="M254 879H1452V739H254V879ZM254 481H1452V342H254V481Z" />
<glyph unicode="&gt;" glyph-name="greater" horiz-adv-x="1706" d="M264 1159L1442 676V547L264 63V217L1235 610L264 1006V1159Z" />
<glyph unicode="?" glyph-name="question" horiz-adv-x="977" d="M348 1079Q293 1038 250 1038Q162 1038 162 1126Q162 1197 227 1274T403 1401T639 1452Q744 1452 825 1418T950 1324T995 1194Q995 1116 948 1061T761 914T594 801Q479 717 430 650T381 498V451Q381
377 313 377Q275 377 251 406T227 483Q227 563 286 642T461 809Q536 864 600 911T708 999T777 1087T803 1190Q803 1276 748 1326T602 1376Q485 1376 424 1304T348 1079ZM162 -25Q127 -25 104 0T80 63Q80 129 120 184T215 240Q251 240 273 214T295 145Q295 106 276
66T226 1T162 -25Z" />
<glyph unicode="@" glyph-name="at" horiz-adv-x="2019" d="M1104 961Q1049 961 1004 930T915 831Q842 722 801 595T760 369Q760 282 800 230T901 178Q1028 178 1135 354Q1192 449 1224 561T1257 756Q1257 849 1215 905T1104 961ZM1186 332Q1124 227 1049 176T879
125Q795 125 730 167T631 285T596 463Q596 571 646 679T786 874Q831 917 881 947T984 992T1087 1008Q1268 1008 1309 817L1360 991H1518L1346 379Q1327 314 1327 281Q1327 174 1417 174Q1449 174 1497 194T1587 246Q1827 430 1827 793Q1827 1060 1618 1239Q1559
1289 1484 1325T1322 1380T1137 1399Q957 1399 802 1338T526 1157Q272 906 272 512Q272 334 328 202T508 -35Q619 -128 761 -176T1069 -225Q1237 -225 1395 -174T1696 -18L1729 -59Q1584 -169 1417 -225T1071 -281Q947 -281 835 -261T625 -200T451 -100Q299 16
220 177T141 537Q141 740 227 917T479 1231Q749 1454 1116 1454Q1289 1454 1431 1406T1673 1266T1826 1046T1880 766Q1880 605 1822 467T1655 231Q1533 123 1395 123Q1300 123 1247 176T1186 332Z" />
<glyph unicode="A" glyph-name="A" horiz-adv-x="1294" d="M594 758H829Q826 702 793 678H545Q425 440 316 279T105 37T-96 -43Q-165 -43 -218 2T-272 104Q-272 139 -256 172T-211 222T-152 240Q-135 240 -118 235T-81 221T-34 204T14 195Q82 195 142 237T262
363T386 560T545 858Q630 1018 704 1126T858 1312T1019 1428T1190 1466Q1241 1466 1241 1425Q1241 1390 1227 1362T1198 1333Q1190 1333 1172 1335T1143 1337Q993 1337 862 1196T594 758ZM844 410L965 1202Q1035 1241 1085 1257Q1110 1239 1133 1200L1040 537Q1034
485 1034 451Q1034 407 1050 383T1092 333T1118 291Q1118 271 1103 217T1061 109Q1029 43 992 7T922 -29Q885 -29 851 25T817 166Q817 210 822 252T844 410Z" />
<glyph unicode="B" glyph-name="B" horiz-adv-x="1401" d="M90 350L360 1065Q399 1166 399 1225Q399 1255 386 1276T346 1323T308 1364T297 1399Q297 1428 316 1446T367 1464Q384 1464 434 1455T516 1446Q531 1446 559 1452T600 1458Q624 1458 643 1438T662 1389Q662
1374 655 1351T636 1296T608 1225L248 266Q219 189 219 156Q219 105 262 90T412 74Q565 74 687 106T891 196T1014 333T1055 502Q1055 551 1036 575T988 620T958 651Q958 692 1040 692Q1102 692 1153 663T1235 580T1266 457Q1266 370 1226 287T1113 138T942 34T729
-4Q696 -4 637 -1T487 5T279 8Q155 8 41 -4T-63 -16Q-147 -16 -147 78Q-147 101 -135 111T-96 127T-53 139Q-4 159 24 204T90 350ZM1096 1452Q1165 1452 1223 1416T1316 1316T1350 1174Q1350 1039 1261 926T1005 747T618 680Q550 680 518 687T485 717Q485 731 500
740T539 750Q577 750 590 750T618 748Q767 748 889 801T1081 942T1151 1130Q1151 1204 1103 1248T975 1292Q906 1292 861 1270T762 1207T686 1167Q662 1167 662 1188Q662 1214 729 1278Q909 1452 1096 1452Z" />
<glyph unicode="C" glyph-name="C" horiz-adv-x="1110" d="M844 1382Q844 1417 887 1417Q897 1417 913 1416T948 1413T977 1411Q1014 1411 1066 1428T1128 1446Q1163 1446 1182 1424T1202 1366Q1202 1317 1180 1268T1125 1186T1061 1153Q1032 1153 1020 1170T996
1221T971 1276T939 1308T895 1334T857 1357T844 1382ZM412 -43Q327 -43 247 30T117 233T66 522Q66 670 115 808T259 1067T489 1280Q572 1337 631 1364T711 1391Q735 1391 735 1368Q735 1352 723 1342T660 1300T584 1247Q512 1190 455 1116T359 955T300 771T279
575Q279 386 342 276T502 166Q566 166 627 201T760 291T852 346Q879 346 879 324Q879 290 721 145Q619 52 545 5T412 -43Z" />
<glyph unicode="D" glyph-name="D" horiz-adv-x="1583" d="M588 1145L315 479Q250 319 234 276T217 193Q217 138 266 117T434 96Q668 96 861 209T1164 518T1274 944Q1274 1055 1236 1143T1129 1278T973 1325Q922 1325 878 1310T787 1271T727 1247Q705 1247 705
1268Q705 1278 738 1311T816 1375T925 1428T1051 1452Q1169 1452 1270 1386T1431 1201T1491 934Q1491 771 1417 599T1208 289Q1120 196 1016 131T797 34T563 2Q526 2 410 13T244 30T123 35Q69 35 23 30T-52 21T-92 16Q-122 16 -142 41T-162 104Q-162 131 -150 142T-104
162T-59 176Q-28 188 -8 208T27 256T60 329T96 418L354 1036Q418 1191 418 1235Q418 1263 405 1281T373 1317T335 1358T315 1401Q315 1428 336 1448T387 1468Q398 1468 440 1458T512 1448Q521 1448 554 1453T606 1458Q638 1458 657 1441T676 1395Q676 1364 588
1145Z" />
<glyph unicode="E" glyph-name="E" horiz-adv-x="1337" d="M1249 1147Q1233 1147 1229 1152T1225 1171V1180Q1225 1188 1221 1212Q1202 1290 1139 1319Q1108 1333 1072 1338T965 1347T856 1356Q771 1365 739 1373T707 1405Q707 1427 733 1427Q740 1427 793 1420T889
1413Q964 1413 1096 1429T1298 1446Q1378 1446 1420 1414T1462 1325Q1462 1279 1432 1239T1352 1173T1249 1147ZM541 883L567 954H834Q891 954 927 923T963 844Q963 797 929 764T850 731Q817 731 798 745T761 782T723 836Q702 861 679 872T618 883H541ZM63 295L332
1034Q373 1153 373 1192Q373 1225 346 1259T290 1327T262 1393Q262 1416 274 1431T309 1446Q322 1446 363 1439T430 1432Q439 1432 476 1437T537 1442Q618 1442 618 1343Q618 1287 557 1120L285 375Q238 246 238 178Q238 116 282 92T430 68Q562 68 675 100T862
184Q900 211 953 271T1026 350T1079 369Q1155 369 1155 270Q1155 193 1114 127T1000 22T840 -18Q835 -18 765 -13T636 -5T492 1T287 4Q193 4 120 -2T-6 -15T-63 -23Q-94 -23 -114 0T-135 63Q-135 97 -127 103T-66 131Q-12 153 11 185T63 295Z" />
<glyph unicode="F" glyph-name="F" horiz-adv-x="1290" d="M1253 1147Q1237 1147 1233 1152T1229 1171V1180Q1229 1188 1225 1212Q1206 1290 1143 1319Q1112 1333 1076 1338T969 1347T860 1356Q775 1365 743 1373T711 1405Q711 1427 735 1427Q743 1427 796 1420T893
1413Q942 1413 989 1417T1095 1428T1207 1441T1303 1446Q1382 1446 1424 1414T1466 1325Q1466 1279 1436 1239T1356 1173T1253 1147ZM545 883L571 954H838Q895 954 931 923T967 844Q967 797 933 764T854 731Q821 731 802 745T765 782T727 836Q706 861 683 872T623
883H545ZM377 618Q307 428 307 385Q307 370 317 348T336 310T354 278T362 242Q362 174 205 35Q167 3 141 -12T90 -27Q61 -27 39 8T16 98Q16 157 32 213T84 353T121 442L336 1034Q377 1153 377 1192Q377 1225 350 1259T294 1327T266 1393Q266 1416 278 1431T313
1446Q326 1446 367 1439T434 1432Q443 1432 480 1437T541 1442Q623 1442 623 1343Q623 1290 561 1120L377 618Z" />
<glyph unicode="G" glyph-name="G" horiz-adv-x="1485" d="M1032 1378Q1032 1421 1087 1421Q1096 1421 1131 1417T1190 1413Q1228 1413 1280 1429T1354 1446Q1391 1446 1414 1416T1438 1335Q1438 1291 1414 1252T1352 1188T1276 1163Q1257 1163 1248 1176T1219
1226T1178 1282Q1158 1299 1113 1318T1050 1347T1032 1378ZM1032 68Q943 15 847 -13T664 -41Q499 -41 364 35T153 249T76 565Q76 980 446 1253Q553 1332 674 1376T866 1421Q905 1421 905 1389Q905 1372 890 1362T838 1338T774 1313Q631 1251 524 1135T358 870T299
569Q299 420 348 302T486 119T686 53Q756 53 850 86L1010 526Q916 542 874 567T831 635Q831 670 853 696T903 723Q916 723 960 711T1040 693T1130 686Q1190 686 1251 698T1325 711Q1354 711 1370 693T1386 641Q1386 599 1369 581T1325 556T1198 532L1032 68Z" />
<glyph unicode="H" glyph-name="H" horiz-adv-x="1593" d="M600 1210L479 903H1219Q1271 1041 1295 1118T1319 1229Q1319 1251 1306 1268T1261 1315T1220 1357T1210 1391Q1210 1417 1226 1434T1270 1452Q1288 1452 1339 1441T1421 1430Q1455 1430 1497 1440T1546
1450Q1595 1450 1595 1393Q1595 1373 1587 1350T1558 1279T1528 1210L1296 618Q1225 434 1225 385Q1225 370 1235 348T1254 310T1272 278T1280 242Q1280 176 1120 35Q1083 3 1057 -12T1008 -27Q979 -27 956 8T932 98Q932 168 959 245T1065 510T1188 823H449L369
618Q297 439 297 385Q297 370 307 348T326 310T344 278T352 242Q352 174 195 35Q157 3 131 -12T80 -27Q51 -27 29 8T6 98Q6 161 24 220T82 371T135 496Q237 763 285 892T362 1107T391 1229Q391 1251 377 1270T333 1316T293 1357T283 1391Q283 1416 299 1434T344
1452Q363 1452 412 1441T494 1430Q529 1430 570 1440T618 1450Q670 1450 670 1393Q670 1363 640 1297T600 1210Z" />
<glyph unicode="I" glyph-name="I" horiz-adv-x="678" d="M590 1159L377 618Q307 441 307 385Q307 370 317 348T336 310T354 278T362 242Q362 174 205 35Q137 -27 88 -27Q57 -27 34 7T10 98Q10 144 23 195T58 297T102 399T141 496Q288 878 341 1029T395 1229Q395
1252 381 1270T340 1314T301 1354T289 1391Q289 1417 304 1434T348 1452Q364 1452 397 1445T448 1434T502 1430Q538 1430 579 1440T629 1450Q678 1450 678 1393Q678 1372 667 1342T630 1252T590 1159Z" />
<glyph unicode="J" glyph-name="J" horiz-adv-x="631" d="M389 621Q324 437 262 296T140 52T20 -111Q-51 -187 -138 -240T-319 -321T-510 -348Q-621 -348 -621 -299Q-621 -274 -600 -267T-520 -260Q-422 -260 -333 -222T-172 -111T-41 74Q-4 146 59 291T180 588Q273
835 320 979T367 1178Q367 1206 348 1229T292 1280T242 1325T227 1370Q227 1401 245 1420T293 1440Q313 1440 354 1435T414 1430Q448 1430 499 1440T569 1450Q603 1450 625 1430T647 1374Q647 1342 633 1303T573 1139L389 621Z" />
<glyph unicode="K" glyph-name="K" horiz-adv-x="1436" d="M750 698Q823 627 879 551T982 401T1055 299T1118 270Q1149 270 1167 284T1202 319T1223 340Q1244 340 1277 314T1311 252Q1311 199 1241 96Q1161 -25 1098 -25Q1042 -25 992 29T879 205Q862 238 835
299T786 406T718 529T631 657L750 698ZM410 725Q601 787 754 863T1012 1020T1170 1177T1223 1319Q1223 1359 1211 1381T1183 1414T1167 1427Q1167 1438 1194 1469T1260 1501Q1296 1501 1336 1484T1404 1439T1432 1378Q1432 1306 1363 1212T1159 1015T826 813T375
637L346 557Q297 426 297 385Q297 370 307 348T326 310T344 278T352 242Q352 174 195 35Q157 3 131 -12T80 -27Q51 -27 29 8T6 98Q6 161 24 220T82 371T135 496Q237 763 285 892T362 1107T391 1229Q391 1251 377 1270T333 1316T293 1357T283 1391Q283 1416 299
1434T344 1452Q363 1452 412 1441T494 1430Q529 1430 570 1440T618 1450Q670 1450 670 1393Q670 1361 640 1299T600 1210L410 725Z" />
<glyph unicode="L" glyph-name="L" horiz-adv-x="1309" d="M418 1452Q428 1452 463 1444T524 1436Q547 1436 588 1444T647 1452Q685 1452 707 1431T729 1372Q729 1357 723 1335T706 1290T670 1202Q636 1115 589 996T517 810T453 652T375 477Q297 314 188 200T-36
29T-240 -29Q-297 -29 -297 12Q-297 33 -281 40T-222 57T-136 85T-49 139Q10 188 62 257T154 403T242 594Q348 851 403 1018T459 1229Q459 1251 446 1268T401 1315T360 1357T350 1391Q350 1452 418 1452ZM1110 379Q1158 379 1190 361T1223 315Q1223 288 1186 235T1081
125Q916 -16 817 -16Q823 -16 678 -3T383 10Q329 10 272 7T182 0T152 -4Q104 -4 104 29Q104 43 123 57T172 78Q218 86 355 88T575 104Q697 128 761 168T926 289Q1039 379 1110 379Z" />
<glyph unicode="M" glyph-name="M" horiz-adv-x="1831" d="M1858 1245Q1796 1253 1769 1253Q1641 1253 1527 1184T1299 976T1053 616Q998 525 943 425T847 252T753 101T643 -41H639Q607 -41 598 2Q733 381 733 680Q733 867 693 998T577 1196T401 1264Q386 1264
378 1264T360 1262Q336 1262 324 1269T311 1296Q311 1314 322 1325T356 1350L512 1444Q628 1439 716 1371T851 1176T899 877Q899 691 842 432Q973 684 1110 877T1383 1197T1640 1387T1868 1450Q1914 1450 1919 1434L1946 1370Q1950 1358 1950 1352Q1950 1339 1940
1327T1908 1293T1858 1245ZM-150 266Q-51 227 0 227Q45 227 80 258T150 351T231 520Q233 526 291 667T379 872T453 1003T551 1118L598 1065Q532 995 486 904T379 657Q270 370 216 244T98 43T-49 -33Q-118 -33 -173 40T-229 172Q-229 191 -210 212T-150 266ZM1511
1063Q1632 1122 1675 1122Q1692 1122 1702 1114T1712 1092Q1712 1085 1679 1003T1609 828T1552 684Q1548 674 1512 580T1464 446T1452 383Q1452 354 1460 336T1486 293T1503 258Q1503 224 1479 176T1401 70Q1309 -31 1255 -31Q1222 -31 1200 4T1178 94Q1178 152
1204 239T1277 445T1388 728T1511 1063Z" />
<glyph unicode="N" glyph-name="N" horiz-adv-x="1745" d="M-102 193Q-96 193 -85 192T-63 190Q15 190 65 210T154 279Q195 329 283 535T498 1079Q563 1046 563 1014Q563 1003 557 985L328 395Q239 164 175 64T23 -37Q-59 -37 -145 78L-102 193ZM629 1432Q750
1353 851 1237T1029 972T1159 644T1233 262Q1298 409 1367 584T1475 871T1533 1065T1554 1188Q1554 1237 1538 1269T1498 1335T1473 1382Q1473 1411 1511 1430Q1568 1458 1661 1481Q1751 1448 1751 1356Q1751 1315 1722 1234T1618 971T1472 610T1323 213Q1304 155
1287 105T1258 26T1231 -18T1194 -33Q1171 -33 1143 -10Q1125 270 1057 498T880 888T625 1146T309 1257Q287 1286 287 1317Q287 1338 325 1362T455 1427L629 1432Z" />
<glyph unicode="O" glyph-name="O" horiz-adv-x="1460" d="M563 -43Q486 -43 412 -13T274 76Q215 129 169 208T97 378T72 563Q72 687 115 809T241 1043T444 1251Q518 1310 588 1350T707 1408T778 1427Q817 1427 817 1401Q817 1387 799 1372T737 1330T655 1272T575
1200Q483 1107 417 989T317 736T283 467Q283 336 320 240T422 94T565 43Q661 43 762 115T963 336Q1060 480 1109 634T1159 934Q1159 1059 1129 1141T1047 1249Q1042 1252 1015 1261T975 1281T963 1313Q963 1336 977 1349T1013 1375T1071 1409Q1090 1422 1109 1439T1144
1465T1178 1475Q1216 1475 1266 1410T1351 1238T1386 1014Q1386 845 1328 676T1155 350Q1088 258 1010 182T856 56T707 -18T563 -43Z" />
<glyph unicode="P" glyph-name="P" horiz-adv-x="1309" d="M752 635Q633 635 558 660T483 719Q483 739 520 739Q529 739 583 731T684 723Q784 723 866 755T1011 844T1106 970T1139 1112Q1139 1194 1087 1246T952 1298Q900 1298 856 1282T764 1242T702 1217Q680
1217 680 1235Q680 1256 738 1307T881 1398T1053 1438Q1138 1438 1205 1402T1307 1300T1343 1147Q1343 1053 1299 959T1174 793Q997 635 752 635ZM373 618Q301 436 301 385Q301 370 307 355T327 318T349 279T358 242Q358 176 199 35Q131 -27 82 -27Q52 -27 29 8T6
98Q6 161 24 220T87 381T137 498Q225 724 279 870T362 1106T391 1233Q391 1256 377 1273T333 1316T293 1354T283 1386Q283 1416 298 1434T344 1452Q361 1452 403 1443T473 1434Q479 1434 505 1436T549 1438Q641 1438 641 1358Q641 1303 584 1159L373 618Z" />
<glyph unicode="Q" glyph-name="Q" horiz-adv-x="1460" d="M563 -43Q486 -43 412 -13T274 76Q215 129 169 208T97 378T72 563Q72 687 115 809T241 1043T444 1251Q518 1310 588 1350T707 1408T778 1427Q817 1427 817 1401Q817 1387 799 1372T737 1330T655 1272T575
1200Q483 1107 417 989T317 736T283 467Q283 336 320 240T422 94T565 43Q661 43 762 115T963 336Q1060 480 1109 634T1159 934Q1159 1059 1129 1141T1047 1249Q1042 1252 1015 1261T975 1281T963 1313Q963 1336 977 1349T1013 1375T1071 1409Q1090 1422 1109 1439T1144
1465T1178 1475Q1216 1475 1266 1410T1351 1238T1386 1014Q1386 845 1328 676T1155 350Q1088 258 1010 182T856 56T707 -18T563 -43ZM825 -440Q778 -440 735 -419T649 -358Q552 -267 506 -233T406 -199Q381 -199 348 -211T303 -223Q289 -223 278 -208T266 -178Q266
-162 318 -136T428 -109Q476 -109 525 -125T644 -172T746 -214T819 -225Q873 -225 909 -207T998 -153T1073 -117Q1100 -117 1118 -139T1137 -195Q1137 -250 1092 -307T973 -402T825 -440Z" />
<glyph unicode="R" glyph-name="R" horiz-adv-x="1470" d="M373 618Q301 436 301 385Q301 370 307 355T327 318T349 279T358 242Q358 176 199 35Q131 -27 82 -27Q52 -27 29 8T6 98Q6 161 24 220T87 381T137 498Q225 724 279 870T362 1106T391 1233Q391 1256 377
1273T333 1316T293 1354T283 1386Q283 1416 298 1434T344 1452Q361 1452 403 1443T473 1434Q479 1434 505 1436T549 1438Q641 1438 641 1358Q641 1303 584 1159L373 618ZM805 729Q780 769 774 815Q1145 930 1145 1159Q1145 1237 1095 1285T965 1333Q917 1333 880
1320T803 1283T741 1245T709 1231Q686 1231 686 1249Q686 1267 740 1317T881 1407T1069 1446Q1154 1446 1219 1415T1319 1328T1354 1198Q1354 1048 1217 932T805 729ZM487 748Q490 779 514 817Q666 802 770 655Q792 624 815 582T864 491T921 388T983 293Q1045 215
1139 215Q1186 215 1215 232T1282 281T1337 313Q1364 313 1384 287T1405 219Q1405 156 1366 98T1261 5T1126 -31Q886 -31 723 432Q682 550 659 602T596 694T487 748Z" />
<glyph unicode="S" glyph-name="S" horiz-adv-x="1096" d="M983 1163Q959 1163 948 1180T914 1245T872 1317Q856 1338 833 1349T776 1372T732 1389T721 1405Q721 1425 769 1441T879 1458Q945 1458 994 1433T1072 1368T1100 1288Q1100 1246 1058 1205T983 1163ZM842
391Q842 281 783 185T621 30T397 -29Q283 -29 192 17T47 142T-6 315Q-6 393 28 438T119 483Q164 483 192 450T221 362Q221 342 217 306T213 252Q213 160 274 106T428 51Q495 51 548 82T632 172T662 307Q662 364 647 416T610 511T562 597T485 717Q402 850 359 951T315
1128Q315 1208 354 1276T453 1384T567 1423Q598 1423 598 1405Q598 1395 567 1368T516 1304T496 1202Q496 1092 625 883Q676 803 729 718T812 555T842 391Z" />
<glyph unicode="T" glyph-name="T" horiz-adv-x="1251" d="M145 1358Q206 1444 284 1486T465 1528Q548 1528 621 1505T846 1423Q1053 1348 1153 1348Q1266 1348 1352 1434Q1368 1450 1391 1484T1430 1518Q1448 1518 1448 1491Q1448 1455 1401 1399T1279 1303T1120
1262Q1050 1262 990 1272T821 1308T652 1345T537 1356Q447 1356 396 1327T315 1229Q303 1196 299 1186T287 1168T264 1161Q239 1161 214 1205T145 1358ZM899 1124Q899 1113 892 1092T866 1026T830 936T774 797Q707 620 675 518T643 385Q643 367 652 347T671 310T688
277T696 242Q696 176 543 35Q475 -27 430 -27Q401 -27 378 8T354 98Q354 147 377 225T440 405T555 700T670 1004Q712 1116 729 1146T788 1176Q899 1176 899 1124Z" />
<glyph unicode="U" glyph-name="U" horiz-adv-x="1417" d="M209 1288Q221 1336 225 1353T236 1378T260 1389Q339 1401 417 1424T506 1448Q541 1448 577 1410T614 1311Q614 1270 596 1215T545 1081T469 897Q373 657 333 535T293 322Q293 241 329 179T428 81T571
45Q670 45 747 100T892 266T1030 551Q1127 789 1179 956T1231 1174Q1231 1224 1210 1253T1153 1317T1116 1374Q1116 1419 1180 1425Q1273 1434 1327 1443T1382 1452Q1415 1452 1433 1434T1452 1380Q1452 1348 1394 1176T1241 766Q1142 515 1083 386T965 184Q783
-43 553 -43Q437 -43 339 14T185 169T129 387Q129 441 142 503T174 618T226 757T291 926Q319 999 338 1061T358 1161Q358 1215 321 1245T209 1288Z" />
<glyph unicode="V" glyph-name="V" horiz-adv-x="1251" d="M1460 1401Q1406 1395 1352 1346T1242 1220T1079 973Q1006 855 938 745T812 549T673 356T500 145Q414 48 359 0T274 -49Q256 -49 243 -37T229 -6Q229 10 257 73T315 222T368 436T391 717Q391 909 342
1014T211 1120Q198 1120 190 1120T170 1118Q102 1118 102 1190Q102 1202 114 1216T153 1247T215 1290Q269 1329 293 1343T338 1358Q387 1358 438 1291T523 1108T557 868Q557 540 426 166Q579 324 718 550T1001 1087Q1103 1307 1143 1385T1236 1519T1350 1575Q1401
1575 1430 1533T1460 1415V1401Z" />
<glyph unicode="W" glyph-name="W" horiz-adv-x="1933" d="M913 793Q877 726 842 647T782 502T732 379T680 272Q624 170 561 101T442 -5T352 -41Q332 -41 319 -30T305 0Q305 8 339 109T400 335T426 621Q426 772 402 884T332 1067T223 1159Q214 1162 170 1171T107
1195T88 1245Q88 1261 98 1270T134 1291T180 1313Q192 1319 226 1343T277 1376T319 1386Q360 1386 406 1344T495 1223T562 1034T588 791Q588 679 571 556T521 310T440 72Q530 143 594 256T725 551Q844 881 879 881Q889 881 896 871T908 843T913 801V793ZM2073 1382Q2002
1340 1936 1263T1815 1099T1655 840Q1509 606 1397 448T1188 178T1024 10T922 -45Q900 -45 884 -35T868 -8Q868 9 899 89T947 222T983 376T1001 606Q1001 741 979 853T921 1034T844 1122Q830 1128 793 1132T736 1152T715 1208Q715 1221 721 1228T742 1244T777 1259T817
1276Q826 1280 869 1308T938 1337Q968 1337 1005 1300T1078 1188T1135 1007T1157 770Q1157 661 1141 552T1095 333T1018 88Q1089 156 1170 257T1334 487T1501 769T1663 1094Q1757 1301 1795 1384T1874 1517T1958 1567Q1984 1567 2023 1552T2096 1516T2130 1487Q2130
1460 2073 1382ZM1171 1192L1130 1245Q1270 1448 1403 1448Q1479 1448 1540 1393V1389Q1540 1334 1510 1293T1450 1251Q1442 1251 1407 1268T1335 1286Q1266 1286 1171 1192Z" />
<glyph unicode="X" glyph-name="X" horiz-adv-x="1518" d="M266 -182Q240 -182 212 -145T166 -46T147 92Q147 178 174 265T254 443T383 633Q501 784 537 784Q551 784 559 776T567 756Q567 743 558 727T531 688T495 640T455 578Q398 480 369 385T340 221Q340 148
359 111T410 42T442 -6Q442 -37 409 -78T333 -151T266 -182ZM1374 231Q1374 194 1364 149T1334 62T1290 -5T1239 -29Q1197 -29 1141 23T1012 179T844 444Q781 549 719 657T611 846T523 999T451 1116Q396 1199 341 1238T195 1300Q156 1312 145 1318T133 1341Q133
1372 161 1411T223 1450Q232 1450 268 1444T332 1438Q346 1439 357 1439T385 1440Q423 1440 458 1415T527 1345T610 1214T729 999Q791 888 882 727T1045 471T1185 330T1333 283Q1350 283 1362 269T1374 231ZM1606 1278Q1498 1313 1419 1313Q1319 1313 1203 1269T967
1135Q945 1119 911 1088T865 1048T838 1038Q825 1038 816 1048T807 1071Q807 1119 1030 1303Q1173 1419 1324 1482T1595 1546Q1650 1546 1670 1532T1690 1473Q1690 1353 1606 1278Z" />
<glyph unicode="Y" glyph-name="Y" horiz-adv-x="1251" d="M797 856L762 934Q870 1150 1011 1303T1309 1536Q1371 1517 1408 1490T1446 1444Q1446 1414 1421 1357T1350 1260Q1337 1261 1327 1261T1311 1262Q1211 1262 1127 1219T964 1086T797 856ZM131 209L182
283Q227 268 260 268Q335 268 404 325T515 487T557 727Q557 849 523 954T431 1131T301 1231Q266 1245 220 1251T155 1264T137 1296Q137 1310 147 1320T176 1341T227 1372Q251 1389 283 1421T334 1468T375 1483Q443 1483 535 1339Q589 1253 630 1153T692 952T713
748Q713 387 506 92Q468 38 424 7T344 -25Q317 -25 298 -7T246 62T191 144T131 209Z" />
<glyph unicode="Z" glyph-name="Z" horiz-adv-x="1290" d="M98 55Q-87 -4 -125 -4Q-141 -4 -152 5T-164 33Q-164 65 -82 155T158 394T683 881T1176 1335Q1139 1331 1073 1331Q1026 1331 938 1344T817 1358Q739 1358 655 1326T492 1233Q450 1200 419 1175T368 1138T338
1126Q320 1126 310 1144T290 1207T264 1321Q468 1481 629 1481Q690 1481 750 1470T889 1438T1011 1408T1106 1399Q1155 1399 1191 1408T1275 1435T1339 1452Q1368 1452 1384 1437T1401 1397Q1401 1366 1376 1335T1290 1245L319 326Q202 216 159 168T98 55ZM770
-2Q753 -2 683 8T561 18Q514 18 475 16T388 8T295 0T225 -4Q187 -4 172 1T156 23Q156 43 182 49T285 64T429 88T578 139Q659 177 719 221T843 322T938 400T1004 422Q1050 422 1077 394T1104 319Q1104 258 1054 182T925 52T770 -2Z" />
<glyph unicode="[" glyph-name="bracketleft" horiz-adv-x="682" d="M514 1159L82 -4Q53 -82 53 -127Q53 -161 78 -173T162 -186Q217 -191 236 -197T256 -227Q256 -264 184 -264Q167 -264 118 -262T37 -260Q-2 -260 -42 -263T-96 -268T-123 -270Q-176 -270 -176
-227Q-176 -213 -171 -199T-150 -153T-120 -90T-90 -16L395 1286Q405 1313 421 1367T447 1433T485 1446Q485 1446 546 1442T670 1438Q704 1438 749 1442T807 1446Q877 1446 877 1399Q877 1368 811 1368H735Q652 1368 604 1321T514 1159Z" />
<glyph unicode="\" glyph-name="backslash" horiz-adv-x="569" d="M303 -190L178 1450H293L420 -190H303Z" />
<glyph unicode="]" glyph-name="bracketright" horiz-adv-x="682" d="M6 20L438 1184Q467 1262 467 1309Q467 1343 443 1355T358 1368Q297 1374 281 1378T264 1407Q264 1446 336 1446Q357 1446 368 1446T397 1444T439 1442T483 1440Q502 1440 562 1443T643 1446Q698
1446 698 1407Q698 1387 661 1311T610 1196L125 -106Q116 -130 106 -168T88 -228T69 -260T35 -270Q27 -270 0 -265T-63 -256T-147 -252Q-176 -252 -189 -252T-220 -254T-255 -256T-285 -258Q-356 -258 -356 -219Q-356 -180 -291 -180Q-264 -180 -249 -180T-215
-182Q-156 -182 -118 -162T-52 -100T6 20Z" />
<glyph unicode="^" glyph-name="asciicircum" horiz-adv-x="2048" d="M926 1462H1120L1632 897H1534L1022 1317L508 897H412L926 1462Z" />
<glyph unicode="_" glyph-name="underscore" horiz-adv-x="1024" d="M0 -340H1024V-483H0V-340Z" />
<glyph unicode="`" glyph-name="grave" horiz-adv-x="1024" d="M545 1458Q560 1364 588 1301T646 1194T676 1143Q676 1124 657 1124Q618 1124 524 1202Q406 1302 406 1374Q406 1414 432 1442T496 1470Q499 1470 545 1458Z" />
<glyph unicode="a" glyph-name="a" horiz-adv-x="938" d="M657 799Q619 895 526 895Q459 895 386 846T248 705Q202 639 167 562T115 411T98 274Q98 195 162 195Q202 195 246 224T344 299T410 344Q426 344 426 326Q426 304 283 158Q184 57 141 21T61 -16Q8 -16
-29 45T-66 213Q-66 361 6 517T207 795Q289 874 371 915T526 956Q620 956 688 885Q710 938 721 959T747 987T795 993Q838 993 854 982T870 946Q870 932 853 885T788 715T719 535Q643 326 643 270Q643 249 651 236T673 205T688 176Q688 153 652 105T566 20T485 -18Q456
-18 437 8T418 80Q418 140 469 281L657 799Z" />
<glyph unicode="b" glyph-name="b" horiz-adv-x="985" d="M102 68Q160 53 201 53Q328 53 443 137T628 359T698 655Q698 745 665 795T569 846Q539 846 521 837T476 810T438 791Q422 791 422 807Q422 824 456 860T543 923T651 950Q746 950 807 879T868 690Q868 534
788 378T571 119Q389 -18 143 -18Q29 -18 -15 2T-59 78Q-59 108 27 335T168 717Q211 840 250 951T306 1119T324 1192Q324 1213 312 1225T276 1249T242 1270T231 1296Q231 1315 242 1322T289 1343Q332 1357 354 1367T409 1396T459 1422T489 1430Q515 1430 533 1414T551
1372Q551 1353 530 1298L229 451Q210 397 192 346T149 219T102 68Z" />
<glyph unicode="c" glyph-name="c" horiz-adv-x="721" d="M645 985Q671 985 689 958T707 883Q707 820 654 771T541 721Q502 721 502 750Q502 758 511 782T520 823Q520 844 504 866T487 895Q487 914 497 920T543 938Q568 945 597 965T645 985ZM377 907Q386 907
392 901T399 885Q399 878 392 871T362 848T322 819Q260 770 211 697T134 543T106 389Q106 298 143 238T231 178Q263 178 294 188T367 218T416 238Q426 238 432 232T438 217Q438 204 421 186T348 113Q269 37 232 10T158 -18Q120 -18 71 25T-12 147T-47 326Q-47 442
12 565T178 786Q238 840 296 873T377 907Z" />
<glyph unicode="d" glyph-name="d" horiz-adv-x="973" d="M991 1430Q1017 1430 1035 1413T1053 1368Q1053 1354 1034 1301T957 1100T871 877T784 635Q759 563 745 521T708 412T680 320T674 279Q674 247 697 217T721 176Q721 149 685 102T600 19T520 -18Q457 -18
457 78Q457 144 513 309T723 897Q779 1050 799 1109T819 1192Q819 1212 806 1225T771 1249T738 1270T727 1296Q727 1315 738 1323T784 1343Q847 1364 906 1397T991 1430ZM111 -16Q76 -16 40 24T-19 137T-43 311Q-43 427 4 549T139 774Q215 861 300 908T457 956Q537
956 584 910T631 809Q631 793 623 783T604 772Q587 772 570 808T535 865T473 887Q350 887 252 739Q194 653 161 552T127 369Q127 286 155 237T227 188Q278 188 342 237T416 287Q440 287 440 266Q440 239 346 156Q233 54 188 19T111 -16Z" />
<glyph unicode="e" glyph-name="e" horiz-adv-x="721" d="M705 911Q705 845 654 769T508 627Q420 566 338 531T236 496Q213 496 213 514Q213 531 262 557T354 612Q427 663 463 712T500 819Q500 848 494 865T476 898T465 918Q465 936 476 942T526 958Q562 968 597
986T645 1004Q670 1004 687 978T705 911ZM158 -18Q120 -18 71 25T-12 147T-47 326Q-47 561 193 813Q311 936 350 936Q369 936 369 920Q369 909 357 892T320 846T272 788Q106 576 106 389Q106 297 143 238T231 178Q263 178 294 188T367 218T416 238Q426 238 432
232T438 217Q438 204 421 186T348 113Q269 37 232 10T158 -18Z" />
<glyph unicode="f" glyph-name="f" horiz-adv-x="530" d="M365 829L389 913L528 911L506 819L365 829ZM37 829L63 911H207Q239 1041 287 1144T394 1315T522 1417T670 1452Q752 1452 798 1423T844 1354Q844 1336 827 1311L780 1235Q765 1208 741 1208Q726 1208
718 1215T706 1235T698 1268Q691 1308 669 1329T612 1350Q540 1350 493 1288T414 1128T293 721Q181 332 109 106T-6 -203Q-53 -296 -106 -357T-220 -448T-346 -479Q-418 -479 -462 -443T-506 -354Q-506 -319 -484 -296T-426 -272Q-408 -272 -380 -278T-336 -285Q-268
-285 -213 -219T-103 -18T-5 249T178 829H37Z" />
<glyph unicode="g" glyph-name="g" horiz-adv-x="1024" d="M993 797Q976 797 965 827T947 869T909 881Q897 881 884 877T862 872Q840 872 840 891Q840 917 886 941T989 965Q1036 965 1060 947T1085 895Q1085 876 1069 852T1032 813T993 797ZM815 762Q815 627 758
517T605 345T395 283Q263 283 175 369T86 575Q86 778 270 879Q358 926 393 926Q403 926 408 921T414 907Q414 898 364 850T277 734T240 561Q240 467 295 404T428 340Q487 340 540 386T628 514T662 684Q662 822 580 864Q570 869 552 874T527 885T520 901Q520 913
532 923T573 948Q593 959 620 978T659 1005T688 1012Q734 1012 774 942T815 762ZM350 -465Q191 -465 53 -420T-165 -304T-246 -164Q-246 -124 -219 -91T-145 -39T-47 -20Q-14 -20 -14 -41Q-14 -51 -31 -69T-59 -106T-70 -164Q-70 -221 -14 -275T135 -362T328 -395Q413
-395 457 -365T502 -281Q502 -209 442 -163T233 -43Q106 22 39 60T-63 132T-98 197Q-98 245 -26 283T129 322Q166 322 166 301Q166 288 143 279T108 260T96 227Q96 213 111 196T152 164T233 119Q316 78 405 32T548 -52T633 -139T664 -252Q664 -346 579 -405T350
-465Z" />
<glyph unicode="h" glyph-name="h" horiz-adv-x="995" d="M479 1430Q506 1430 521 1413T537 1368Q537 1358 513 1290T425 1044T274 617T98 96Q74 25 54 6T-29 -14Q-111 -14 -111 27Q-111 49 -22 265T154 717Q240 953 276 1061T313 1192Q313 1212 300 1225T265
1249T232 1270T221 1296Q221 1315 232 1323T279 1343Q342 1365 401 1397T479 1430ZM332 -12Q298 -12 258 51T217 154Q217 170 225 179T250 188Q262 188 295 176T352 164Q432 164 512 225T643 394T694 633Q694 711 664 759T584 807Q537 807 505 785T428 721T365
680Q348 680 348 696Q348 722 442 813Q527 893 584 928T694 963Q738 963 779 931T844 845T868 727Q868 627 835 526T736 328T571 141Q491 68 428 28T332 -12Z" />
<glyph unicode="i" glyph-name="i" horiz-adv-x="494" d="M-53 82Q-53 119 -41 164T-3 271T46 384T96 504Q166 674 166 715Q166 735 153 748T118 772T85 793T74 819Q74 838 85 846T131 866Q195 887 254 920T332 954Q401 954 401 893Q401 879 386 836T328 689T254
506Q208 385 195 347T182 274Q182 251 190 236T213 204T227 178Q227 153 190 105T105 19T23 -18Q-53 -18 -53 82ZM395 1102Q322 1102 322 1180Q322 1230 352 1269T424 1309Q458 1309 477 1290T496 1233Q496 1180 464 1141T395 1102Z" />
<glyph unicode="j" glyph-name="j" horiz-adv-x="494" d="M397 416Q320 177 256 24T121 -237T-35 -401T-219 -457Q-334 -457 -334 -408Q-334 -385 -307 -385Q-304 -385 -283 -389T-244 -393Q-167 -393 -107 -348T4 -213T106 12Q153 135 197 269T266 489T301 628T313
692Q313 726 302 738T259 776T227 821Q227 836 236 844T267 859T307 872Q352 888 407 921T485 954Q513 954 528 940T543 897Q543 867 524 813L397 416ZM514 1102Q440 1102 440 1180Q440 1230 470 1269T543 1309Q575 1309 594 1290T614 1233Q614 1180 583 1141T514
1102Z" />
<glyph unicode="k" glyph-name="k" horiz-adv-x="985" d="M479 1430Q506 1430 521 1413T537 1368Q537 1353 472 1180T330 782Q257 569 212 434T133 200T98 96Q75 32 51 7T-29 -18Q-104 -18 -104 45Q-104 58 -93 89T-27 254T71 499T154 717Q240 953 276 1061T313
1192Q313 1212 300 1225T265 1249T232 1270T221 1296Q221 1315 232 1323T279 1343Q342 1365 401 1397T479 1430ZM872 1020L975 963Q979 961 979 944Q979 867 879 819H852Q728 819 615 753T403 553Q379 519 361 485T331 438T305 424Q287 424 287 442Q287 465 332
547T459 729Q644 958 872 1020ZM541 -16Q432 -16 432 166Q432 184 434 220T436 276Q436 330 431 365T418 427T410 457Q410 466 416 472T434 479Q488 479 524 373Q531 353 547 305T574 237T605 202T653 188Q690 188 732 221T788 254Q813 254 813 229Q813 188 741
115Q619 -16 541 -16Z" />
<glyph unicode="l" glyph-name="l" horiz-adv-x="494" d="M498 1432Q523 1432 541 1415T559 1370Q559 1352 534 1287T432 1019T291 637Q273 586 255 534T214 414T186 322T180 281Q180 249 203 219T227 178Q227 153 191 105T106 21T27 -16Q-35 -16 -35 80Q-35 118
-18 186T32 350T126 615T229 899Q287 1058 306 1114T326 1194Q326 1215 314 1227T278 1251T244 1272T233 1298Q233 1317 245 1325T291 1346Q343 1362 408 1397T498 1432Z" />
<glyph unicode="m" glyph-name="m" horiz-adv-x="1477" d="M1151 639Q1182 715 1182 758Q1182 792 1165 809T1116 827Q1073 827 1038 805T958 744T895 705Q885 705 885 717Q885 747 969 821Q1046 891 1115 926T1229 961Q1294 961 1329 926T1364 823Q1364 765 1321
664L1194 371Q1165 300 1165 281Q1165 257 1172 243T1196 208T1212 176Q1212 151 1176 104T1092 20T1012 -18Q983 -18 962 11T940 86Q940 125 953 168T995 281L1151 639ZM94 115Q80 76 72 54T55 16T30 -7T-12 -16Q-88 -16 -88 35Q-88 58 -57 135L125 614Q152 689
152 715Q152 736 139 748T103 772T68 793T57 819Q57 838 68 845T115 866Q179 887 238 920T315 954Q342 954 359 938T377 893Q377 873 356 821L94 115ZM604 115Q589 72 580 51T561 14T535 -8T496 -16Q420 -16 420 35Q420 53 451 135L639 639Q670 723 670 758Q670
792 653 809T604 827Q561 827 525 804T443 743T383 705Q373 705 373 719Q373 752 451 817Q621 961 717 961Q782 961 817 926T852 823Q852 800 846 772T833 727T809 664L604 115Z" />
<glyph unicode="n" glyph-name="n" horiz-adv-x="985" d="M356 821L94 115Q80 76 72 54T55 16T30 -7T-12 -16Q-88 -16 -88 35Q-88 58 -57 135L125 614Q152 689 152 715Q152 736 139 748T103 772T68 793T57 819Q57 838 68 845T115 866Q179 887 238 920T315 954Q342
954 359 938T377 893Q377 873 356 821ZM829 664L705 371Q676 304 676 281Q676 257 683 243T707 208T723 176Q723 152 687 105T603 20T522 -18Q491 -18 470 12T449 86Q449 151 506 281L659 639Q690 711 690 758Q690 827 627 827Q584 827 546 801T455 729T385 682Q375
682 375 696Q375 728 469 813Q639 961 737 961Q802 961 837 926T872 823Q872 765 829 664Z" />
<glyph unicode="o" glyph-name="o" horiz-adv-x="825" d="M625 1020Q647 1020 671 989T710 900T725 766Q725 677 701 581T628 389T512 207Q424 97 328 36T168 -25Q115 -25 66 17T-13 137T-43 311Q-43 592 190 825Q236 871 277 898T340 926Q348 926 353 919T358
903Q358 890 328 860T279 807Q125 616 125 350Q125 241 168 172T268 102Q328 102 387 182Q459 280 507 422T555 668Q555 753 531 793T472 861T436 907Q436 922 444 931T470 947T518 967Q543 978 577 999T625 1020Z" />
<glyph unicode="p" glyph-name="p" horiz-adv-x="958" d="M104 117Q63 3 47 -58T31 -166Q31 -196 55 -227T80 -270Q80 -293 43 -341T-42 -427T-123 -465Q-156 -465 -176 -432T-197 -342Q-197 -297 -185 -244T-150 -125T-95 25T-39 172L143 668Q170 735 170 766Q170
785 157 799T128 822T95 844T78 872Q78 891 90 898T135 918Q178 932 200 942T252 969T303 995T336 1006Q362 1006 378 990T395 946Q395 922 377 872L104 117ZM836 664Q836 554 782 429T633 203Q543 107 443 59T238 10Q125 10 125 51Q125 82 182 82Q258 82 315 96T436
160Q495 205 547 284T629 453T659 621Q659 707 631 754T553 801Q514 801 467 775T403 748Q385 748 385 764Q385 777 394 788T425 814T471 848Q565 922 594 942T653 963Q695 963 737 924T808 815T836 664Z" />
<glyph unicode="q" glyph-name="q" horiz-adv-x="985" d="M152 -12Q104 -12 57 29T-21 142T-51 293Q-51 425 7 553T174 784Q265 872 359 916T543 961Q606 961 648 942T690 899Q690 890 678 857T649 799T618 774Q598 774 589 809T565 865T498 885Q381 885 279 766Q232
710 197 642T144 501T125 365Q125 271 156 218T231 164Q273 164 304 176T367 208T410 227Q430 227 430 205Q430 187 362 129Q267 48 227 18T152 -12ZM895 991Q922 979 922 948Q922 914 901 859T822 665T725 430Q612 133 565 -1T518 -172Q518 -193 522 -206T537
-240T547 -270Q547 -293 505 -342T410 -429T324 -467Q262 -467 262 -389Q262 -360 287 -283T360 -83T506 288T727 846Q742 882 753 911T778 955T818 978T895 991Z" />
<glyph unicode="r" glyph-name="r" horiz-adv-x="758" d="M836 918Q836 888 798 823T729 758Q726 758 689 774T612 791Q553 791 516 761T439 684T385 637Q365 637 365 655Q365 670 391 717T469 817Q545 896 620 936T752 977Q789 977 812 960T836 918ZM-53 82Q-53
119 -41 164T-3 271T46 384T96 504Q166 674 166 715Q166 735 153 748T118 772T85 793T74 819Q74 838 85 846T131 866Q195 887 254 920T332 954Q401 954 401 893Q401 879 386 836T328 689T254 506Q208 385 195 347T182 274Q182 251 190 236T213 204T227 178Q227
153 190 105T105 19T23 -18Q-53 -18 -53 82Z" />
<glyph unicode="s" glyph-name="s" horiz-adv-x="645" d="M512 737Q485 737 476 751T461 800T446 846Q438 858 426 867T400 885T381 898T375 911Q375 928 381 935T406 942Q413 942 438 940T479 938Q499 938 529 946T569 954Q629 954 629 864Q629 831 610 802T563
755T512 737ZM428 270Q428 148 347 67T162 -14Q129 -14 129 8Q129 28 160 39Q270 86 270 211Q270 297 209 410Q156 509 126 598T96 729Q96 822 154 883T299 944Q334 944 334 922Q334 911 308 889T267 846T252 786Q252 763 261 734T290 660T340 553Q385 462 406
400T428 270ZM49 -20Q-2 -20 -49 5T-125 67T-154 137Q-154 182 -99 221T-2 260Q14 260 26 248T39 217Q39 199 31 164T23 113Q23 85 33 70T63 36T82 6Q82 -4 73 -12T49 -20Z" />
<glyph unicode="t" glyph-name="t" horiz-adv-x="530" d="M557 920L530 823H338Q158 351 158 281Q158 249 181 219T205 178Q205 151 169 104T84 21T4 -16Q-57 -16 -57 80Q-57 131 -31 222T39 435T184 844Q240 998 258 1050T276 1126Q276 1145 263 1159T228 1184T195
1205T184 1231Q184 1250 195 1258T242 1278Q299 1297 361 1331T449 1366Q475 1366 491 1350T508 1305Q508 1284 461 1168T369 920H557Z" />
<glyph unicode="u" glyph-name="u" horiz-adv-x="963" d="M299 963Q334 963 354 934T375 854Q375 824 362 783T314 656T268 547Q228 452 201 389T161 285T147 219Q147 188 162 174T207 160Q265 160 336 201T410 242Q436 242 436 217Q436 195 375 145Q283 66 201
23T76 -20Q23 -20 -10 18T-43 123Q-43 156 -28 203T31 358T86 492Q162 681 162 727Q162 750 149 762T106 797T76 834Q76 857 92 866T158 893Q186 906 231 934T299 963ZM530 -12Q503 -12 484 13T465 78Q465 146 488 224T561 434Q601 538 642 650T705 821T735 899Q749
930 765 942T825 954Q909 954 909 909Q909 897 867 800T788 612Q680 333 680 287Q680 265 688 250T710 212T725 178Q725 157 689 110T608 25T530 -12Z" />
<glyph unicode="v" glyph-name="v" horiz-adv-x="883" d="M303 127Q434 255 525 385T662 638T707 868Q707 934 689 976T639 1030Q630 1034 608 1038T576 1050T565 1077Q565 1096 575 1105T612 1126Q648 1141 682 1158T730 1181T758 1188Q789 1188 816 1158T861
1071T879 946Q879 860 843 754T731 527T549 287Q462 190 384 119T253 11T180 -25Q164 -25 150 -12T135 18Q135 35 149 69T186 162T222 283T236 422Q236 545 198 634T98 750Q74 761 37 763T-12 771T-25 805Q-25 816 -17 824T17 843T51 858Q81 873 115 893T166 913Q213
913 264 864T348 726T381 524Q381 324 287 137L303 127Z" />
<glyph unicode="w" glyph-name="w" horiz-adv-x="1339" d="M608 510Q623 496 633 482T643 449Q643 429 593 354T461 188Q373 88 301 35T195 -18Q158 -18 158 20Q158 32 184 101T230 251T250 440Q250 590 214 678T109 788Q86 796 48 798T-7 806T-23 836Q-23 861
2 891T64 941T143 961Q196 961 241 931T321 843T376 706T395 530Q395 485 389 427T374 325T346 229T307 135L315 125Q472 260 608 510ZM762 127Q893 255 984 385T1120 638T1165 868Q1165 936 1147 977T1098 1030Q1089 1033 1068 1037T1035 1051T1024 1081Q1024
1108 1071 1126Q1090 1134 1115 1146T1158 1167T1192 1183T1217 1190Q1239 1190 1260 1174T1299 1126T1326 1046T1337 946Q1337 860 1301 754T1188 527T1006 287Q912 182 838 114T711 11T639 -25Q622 -25 608 -12T594 18Q594 32 613 80T648 171T676 283T690 436Q690
561 662 646T592 752Q570 762 528 766T471 776T455 803Q455 829 546 873T668 918Q707 918 746 864T812 717T838 520Q838 323 743 137L762 127Z" />
<glyph unicode="x" glyph-name="x" horiz-adv-x="909" d="M-109 233Q-92 242 -84 242Q-67 242 -47 204T-7 142T61 119Q110 119 152 150T238 250Q244 260 257 285T278 318T301 326Q317 326 317 307Q317 258 233 145Q176 68 113 26T-8 -16Q-61 -16 -105 14T-175
89T-201 174Q-201 189 -162 207L-109 233ZM547 -12Q499 -12 468 24T419 122T374 330T342 504Q317 636 296 699T244 790T160 819H119Q70 819 70 852Q70 869 112 896T210 942T297 961Q402 961 461 668Q468 634 492 491T532 286T568 195T625 164Q653 164 668 171T708
194T748 211Q770 211 770 186Q770 155 709 94Q650 35 618 12T547 -12ZM1044 1092Q1041 1005 954 932Q874 929 798 894T668 803Q636 769 593 713T532 657Q516 657 516 678Q516 696 568 780T705 956Q837 1101 991 1135Q1017 1119 1044 1092Z" />
<glyph unicode="y" glyph-name="y" horiz-adv-x="924" d="M436 45Q568 199 633 364T698 700Q698 888 614 922Q602 927 575 931T534 940T520 963Q520 984 533 995T594 1034Q627 1055 649 1069T683 1091T711 1098Q743 1098 774 1062T825 958T846 799Q846 602 742
382T440 -41Q284 -201 133 -287T-135 -373Q-207 -373 -249 -344T-291 -266Q-291 -241 -275 -207T-236 -147T-190 -121Q-164 -121 -134 -158T-82 -213T-2 -231Q66 -231 127 -196T234 -96T306 59T332 252Q332 372 300 484T216 671T113 766Q89 775 46 778T-13 787T-29
811Q-29 825 -20 835T17 861T55 883Q79 897 107 917T155 949T190 961Q214 961 245 929T324 825Q461 618 461 303Q461 196 428 49L436 45Z" />
<glyph unicode="z" glyph-name="z" horiz-adv-x="948" d="M68 698Q31 698 31 733Q31 757 65 813T149 913T248 958Q274 958 295 951T368 923T449 895T514 887Q562 887 594 896T655 920T694 934Q707 934 715 926T723 907Q723 886 681 856T570 805T420 784Q391 784
347 788T276 793Q212 793 179 775T117 728T68 698ZM119 141Q258 209 369 209Q418 209 487 198T567 186Q601 186 623 194T685 224T741 246Q757 246 765 238T774 217Q774 191 736 137T648 40T559 -2Q530 -2 467 35T370 88T283 104Q209 104 156 85T29 30T-74 -6Q-92
-6 -106 6T-121 35Q-121 55 -98 83T-51 132T76 242T233 383Q403 542 497 630T678 800T813 921T877 961Q897 961 910 949T924 918Q924 886 851 816T544 538T113 147L119 141Z" />
<glyph unicode="{" glyph-name="braceleft" horiz-adv-x="1024" d="M848 1516V1462Q706 1461 659 1405T612 1198V1057Q612 919 593 837T514 707T336 635Q454 612 513 564T592 433T612 213V72Q612 -31 630 -85T698 -164T848 -190V-244H838Q686 -244 605 -212T489
-106T455 102V309Q455 415 432 474T350 564T178 604V668Q268 676 319 693T400 745T442 829T455 963V1169Q455 1304 489 1378T604 1484T838 1516H848Z" />
<glyph unicode="|" glyph-name="bar" horiz-adv-x="1024" d="M438 1565H588V-483H438V1565Z" />
<glyph unicode="}" glyph-name="braceright" horiz-adv-x="1024" d="M176 1516H186Q338 1516 420 1484T536 1377T571 1169V963Q571 886 583 833T627 745T709 693T848 668V604Q737 595 678 565T595 476T571 309V102Q571 -29 537 -104T420 -211T186 -244H176V-190Q319
-189 366 -133T414 72V213Q414 357 433 436T511 563T688 635Q571 658 512 706T433 834T414 1057V1198Q414 1348 367 1404T176 1462V1516Z" />
<glyph unicode="~" glyph-name="asciitilde" horiz-adv-x="1706" d="M1530 770V614Q1328 473 1141 473Q1091 473 1046 482T950 509T852 543Q750 577 692 592T563 608Q477 608 384 569T178 451V606Q389 750 565 750Q683 750 856 688Q939 658 973 646T1053 624T1143
614Q1235 614 1327 652T1530 770Z" />
<glyph unicode="" glyph-name="Zcaron" horiz-adv-x="1290" d="M98 55Q-87 -4 -125 -4Q-141 -4 -152 5T-164 33Q-164 65 -82 155T158 394T683 881T1176 1335Q1139 1331 1073 1331Q1026 1331 938 1344T817 1358Q739 1358 655 1326T492 1233Q450 1200 419 1175T368
1138T338 1126Q320 1126 310 1144T290 1207T264 1321Q468 1481 629 1481Q690 1481 750 1470T889 1438T1011 1408T1106 1399Q1155 1399 1191 1408T1275 1435T1339 1452Q1368 1452 1384 1437T1401 1397Q1401 1366 1376 1335T1290 1245L319 326Q202 216 159 168T98
55ZM770 -2Q753 -2 683 8T561 18Q514 18 475 16T388 8T295 0T225 -4Q187 -4 172 1T156 23Q156 43 182 49T285 64T429 88T578 139Q659 177 719 221T843 322T938 400T1004 422Q1050 422 1077 394T1104 319Q1104 258 1054 182T925 52T770 -2ZM975 1667L1233 1798Q1264
1815 1274 1815Q1281 1815 1287 1809T1294 1792Q1294 1778 1249 1753L946 1575Q922 1563 897 1563Q879 1563 871 1573T856 1612L801 1810H936L975 1667Z" />
<glyph unicode="&#x80;" glyph-name="ogonek" horiz-adv-x="0" />
</font>
</defs>
</svg>
